<svg width="12" height="12" viewBox="0 0 12 12" fill="none" xmlns="http://www.w3.org/2000/svg">
<g clip-path="url(#clip0_578_4527)">
<path d="M11.749 0.251049C12.0837 0.58578 12.0837 1.1285 11.749 1.46323L2.0347 11.1775C1.69997 11.5122 1.15725 11.5122 0.822521 11.1775C0.487789 10.8427 0.487789 10.3001 0.822521 9.96537L10.5368 0.251049C10.8716 -0.083683 11.4142 -0.083683 11.749 0.251049Z" fill="#1A1A1A"/>
<path d="M0 0.857143C0 0.38376 0.38376 0 0.857143 0H11.1429C11.6162 0 12 0.38376 12 0.857143V11.1429C12 11.6162 11.6162 12 11.1429 12C10.6695 12 10.2857 11.6162 10.2857 11.1429V1.71429H0.857143C0.38376 1.71429 0 1.33053 0 0.857143Z" fill="#1A1A1A"/>
</g>
<defs>
<clipPath id="clip0_578_4527">
<rect width="12" height="12" fill="white"/>
</clipPath>
</defs>
</svg>
