<svg width="170" height="40" viewBox="0 0 170 40" fill="none" xmlns="http://www.w3.org/2000/svg">
<g clip-path="url(#clip0_253_22322)">
<path d="M49.5039 28.0911H61.6706V24.5789H53.8282V11.3496H49.5039V28.0911Z" fill="#1A1A1A"/>
<path d="M68.8788 25.7501C67.1442 25.7501 66.2402 24.2984 66.2402 22.1209C66.2402 19.9433 67.1442 18.4682 68.8788 18.4682C70.6134 18.4682 71.5418 19.9433 71.5418 22.1209C71.5418 24.2984 70.6134 25.7501 68.8788 25.7501ZM68.9032 28.4662C72.9344 28.4662 75.5729 25.7267 75.5729 22.1209C75.5729 18.515 72.9344 15.7755 68.9032 15.7755C64.8965 15.7755 62.2091 18.515 62.2091 22.1209C62.2091 25.7267 64.8965 28.4662 68.9032 28.4662Z" fill="#1A1A1A"/>
<path d="M82.5504 32.2359C84.4071 32.2359 86.044 31.8378 87.1434 30.9012C88.1451 30.0349 88.8047 28.7237 88.8047 26.9207V16.1032H84.9935V17.391H84.9446C84.2117 16.3841 83.0878 15.752 81.4265 15.752C78.3238 15.752 76.1738 18.2339 76.1738 21.7461C76.1738 25.4222 78.788 27.4359 81.5975 27.4359C83.1123 27.4359 84.0651 26.8505 84.798 26.0544H84.8957V27.2485C84.8957 28.7002 84.1872 29.5432 82.5015 29.5432C81.1822 29.5432 80.5226 29.0046 80.3027 28.3724H76.4426C76.8335 30.8778 79.1056 32.2359 82.5504 32.2359ZM82.5259 24.6027C81.0356 24.6027 80.0584 23.432 80.0584 21.629C80.0584 19.8027 81.0356 18.632 82.5259 18.632C84.1872 18.632 85.0668 19.99 85.0668 21.6056C85.0668 23.2915 84.2605 24.6027 82.5259 24.6027Z" fill="#1A1A1A"/>
<path d="M96.6422 25.7501C94.9076 25.7501 94.0037 24.2984 94.0037 22.1209C94.0037 19.9433 94.9076 18.4682 96.6422 18.4682C98.3768 18.4682 99.3052 19.9433 99.3052 22.1209C99.3052 24.2984 98.3768 25.7501 96.6422 25.7501ZM96.6667 28.4662C100.698 28.4662 103.337 25.7267 103.337 22.1209C103.337 18.515 100.698 15.7755 96.6667 15.7755C92.66 15.7755 89.9725 18.515 89.9725 22.1209C89.9725 25.7267 92.66 28.4662 96.6667 28.4662Z" fill="#1A1A1A"/>
<path d="M104.5 28.0911H108.482V16.1028H104.5V28.0911ZM104.5 14.4403H108.482V11.3496H104.5V14.4403Z" fill="#1A1A1A"/>
<path d="M110.209 32.0485H114.191V26.8505H114.24C115.022 27.8573 116.17 28.4661 117.783 28.4661C121.056 28.4661 123.231 25.9841 123.231 22.0973C123.231 18.4915 121.203 15.752 117.88 15.752C116.17 15.752 114.949 16.4778 114.094 17.5549H114.02V16.1032H110.209V32.0485ZM116.757 25.5159C115.046 25.5159 114.069 24.1812 114.069 22.2378C114.069 20.2944 114.949 18.8193 116.683 18.8193C118.393 18.8193 119.2 20.1773 119.2 22.2378C119.2 24.2749 118.271 25.5159 116.757 25.5159Z" fill="#1A1A1A"/>
<path d="M129.714 28.4659C132.988 28.4659 135.407 27.1078 135.407 24.4854C135.407 21.4181 132.817 20.8795 130.618 20.5283C129.03 20.2473 127.613 20.1302 127.613 19.2873C127.613 18.5381 128.371 18.1868 129.348 18.1868C130.447 18.1868 131.205 18.5146 131.351 19.5917H135.016C134.82 17.2268 132.915 15.7517 129.372 15.7517C126.416 15.7517 123.973 17.0629 123.973 19.5917C123.973 22.4015 126.294 22.9634 128.468 23.3146C130.13 23.5956 131.644 23.7127 131.644 24.7898C131.644 25.5624 130.887 25.9839 129.69 25.9839C128.371 25.9839 127.54 25.3985 127.393 24.2044H123.631C123.753 26.8502 126.05 28.4659 129.714 28.4659Z" fill="#1A1A1A"/>
<path d="M140.818 28.443C142.552 28.443 143.652 27.7874 144.555 26.6167H144.629V28.0918H148.44V16.1035H144.458V22.8001C144.458 24.2284 143.627 25.2118 142.259 25.2118C140.989 25.2118 140.378 24.486 140.378 23.1747V16.1035H136.42V23.9708C136.42 26.6401 137.935 28.443 140.818 28.443Z" fill="#1A1A1A"/>
<path d="M150.172 28.0915H154.154V21.3715C154.154 19.9432 154.887 18.9363 156.133 18.9363C157.33 18.9363 157.892 19.6856 157.892 20.9734V28.0915H161.874V21.3715C161.874 19.9432 162.583 18.9363 163.853 18.9363C165.05 18.9363 165.612 19.6856 165.612 20.9734V28.0915H169.595V20.2944C169.595 17.6017 168.178 15.752 165.344 15.752C163.731 15.752 162.387 16.4076 161.41 17.8593H161.361C160.726 16.5715 159.48 15.752 157.843 15.752C156.035 15.752 154.838 16.5715 154.056 17.8124H153.983V16.1032H150.172V28.0915Z" fill="#1A1A1A"/>
<path fill-rule="evenodd" clip-rule="evenodd" d="M8.80989 3.79722C7.35353 4.77318 6.03659 5.92709 4.89336 7.22603C9.56511 6.81035 15.5004 7.4891 22.3912 10.7912C29.7496 14.3172 35.675 14.4365 39.7988 13.6741C39.4246 12.5884 38.9535 11.5448 38.3955 10.5528C33.6749 11.03 27.6231 10.3984 20.5703 7.01879C16.0916 4.87265 12.1438 3.98858 8.80989 3.79722ZM35.638 6.79115C31.9101 2.7993 26.4926 0.287109 20.4628 0.287109C18.692 0.287109 16.9739 0.503799 15.336 0.910992C17.5543 1.49109 19.9109 2.33978 22.3912 3.52834C27.5549 6.00274 32.013 6.79946 35.638 6.79115ZM40.6804 17.4852C35.6985 18.4281 28.819 18.2344 20.5703 14.2816C12.8586 10.5862 6.72072 10.6327 2.58114 11.5144C2.36747 11.5599 2.15883 11.6077 1.95522 11.6574C1.41325 12.7871 0.980628 13.975 0.670218 15.2085C1.00175 15.1237 1.34434 15.043 1.69781 14.9677C6.71984 13.8981 13.8156 13.9445 22.3912 18.054C30.103 21.7494 36.2408 21.7029 40.3804 20.8212C40.5222 20.7911 40.662 20.7599 40.7994 20.7277C40.8145 20.4201 40.822 20.1105 40.822 19.7993C40.822 19.0164 40.774 18.2442 40.6804 17.4852ZM40.1347 24.8454C35.2011 25.6721 28.522 25.3548 20.5703 21.5445C12.8586 17.849 6.72072 17.8956 2.58114 18.7772C1.66227 18.9728 0.835675 19.2112 0.106498 19.4628C0.10451 19.5747 0.103516 19.6869 0.103516 19.7993C0.103516 30.5756 9.21866 39.3115 20.4628 39.3115C29.8862 39.3115 37.8143 33.1758 40.1347 24.8454Z" fill="#9C9C55"/>
</g>
<defs>
<clipPath id="clip0_253_22322">
<rect width="170" height="40" fill="white"/>
</clipPath>
</defs>
</svg>
