<svg width="170" height="40" viewBox="0 0 170 40" fill="none" xmlns="http://www.w3.org/2000/svg">
<g clip-path="url(#clip0_548_2543)">
<mask id="mask0_548_2543" style="mask-type:luminance" maskUnits="userSpaceOnUse" x="0" y="0" width="170" height="40">
<path d="M170 0H0V40H170V0Z" fill="white"/>
</mask>
<g mask="url(#mask0_548_2543)">
<path d="M19.7674 0C8.85017 0 0 8.95429 0 20C10.9173 20 19.7674 11.0457 19.7674 0Z" fill="#9C9C55"/>
<path d="M19.7675 40C30.6848 40 39.5349 31.0457 39.5349 20C28.6176 20 19.7675 28.9543 19.7675 40Z" fill="#9C9C55"/>
<path d="M19.7675 0C30.6848 0 39.5349 8.95429 39.5349 20C28.6176 20 19.7675 11.0457 19.7675 0Z" fill="#9C9C55"/>
<path d="M19.7674 40C8.85017 40 -9.54417e-07 31.0457 0 20C10.9173 20 19.7674 28.9543 19.7674 40Z" fill="#9C9C55"/>
<path d="M50.8604 27.4504H62.8124V23.9383H55.1084V10.709H50.8604V27.4504Z" fill="#1A1A1A"/>
<path d="M69.8938 25.1094C68.1898 25.1094 67.3018 23.6577 67.3018 21.4801C67.3018 19.3026 68.1898 17.8274 69.8938 17.8274C71.5978 17.8274 72.5098 19.3026 72.5098 21.4801C72.5098 23.6577 71.5978 25.1094 69.8938 25.1094ZM69.9178 27.8255C73.8778 27.8255 76.4698 25.086 76.4698 21.4801C76.4698 17.8743 73.8778 15.1348 69.9178 15.1348C65.9818 15.1348 63.3418 17.8743 63.3418 21.4801C63.3418 25.086 65.9818 27.8255 69.9178 27.8255Z" fill="#1A1A1A"/>
<path d="M83.3236 31.5952C85.1476 31.5952 86.7556 31.1972 87.8356 30.2606C88.8196 29.3943 89.4676 28.083 89.4676 26.2801V15.4625H85.7236V16.7504H85.6756C84.9556 15.7435 83.8516 15.1113 82.2196 15.1113C79.1716 15.1113 77.0596 17.5933 77.0596 21.1055C77.0596 24.7816 79.6276 26.7952 82.3876 26.7952C83.8756 26.7952 84.8116 26.2099 85.5316 25.4138H85.6276V26.6079C85.6276 28.0596 84.9316 28.9025 83.2756 28.9025C81.9796 28.9025 81.3316 28.364 81.1156 27.7318H77.3236C77.7076 30.2372 79.9396 31.5952 83.3236 31.5952ZM83.2996 23.9621C81.8356 23.9621 80.8756 22.7913 80.8756 20.9884C80.8756 19.1621 81.8356 17.9913 83.2996 17.9913C84.9316 17.9913 85.7956 19.3494 85.7956 20.965C85.7956 22.6508 85.0036 23.9621 83.2996 23.9621Z" fill="#1A1A1A"/>
<path d="M97.1663 25.1094C95.4623 25.1094 94.5743 23.6577 94.5743 21.4801C94.5743 19.3026 95.4623 17.8274 97.1663 17.8274C98.8703 17.8274 99.7823 19.3026 99.7823 21.4801C99.7823 23.6577 98.8703 25.1094 97.1663 25.1094ZM97.1903 27.8255C101.15 27.8255 103.742 25.086 103.742 21.4801C103.742 17.8743 101.15 15.1348 97.1903 15.1348C93.2543 15.1348 90.6143 17.8743 90.6143 21.4801C90.6143 25.086 93.2543 27.8255 97.1903 27.8255Z" fill="#1A1A1A"/>
<path d="M104.884 27.4504H108.796V15.4622H104.884V27.4504ZM104.884 13.7997H108.796V10.709H104.884V13.7997Z" fill="#1A1A1A"/>
<path d="M110.494 31.4079H114.406V26.2099H114.454C115.222 27.2167 116.35 27.8255 117.934 27.8255C121.15 27.8255 123.286 25.3435 123.286 21.4567C123.286 17.8508 121.294 15.1113 118.03 15.1113C116.35 15.1113 115.15 15.8372 114.31 16.9143H114.238V15.4625H110.494V31.4079ZM116.926 24.8752C115.246 24.8752 114.286 23.5406 114.286 21.5972C114.286 19.6538 115.15 18.1786 116.854 18.1786C118.534 18.1786 119.326 19.5367 119.326 21.5972C119.326 23.6343 118.414 24.8752 116.926 24.8752Z" fill="#1A1A1A"/>
<path d="M129.655 27.8274C132.871 27.8274 135.247 26.4694 135.247 23.8469C135.247 20.7796 132.703 20.2411 130.543 19.8899C128.983 19.6089 127.591 19.4918 127.591 18.6489C127.591 17.8996 128.335 17.5484 129.295 17.5484C130.375 17.5484 131.119 17.8762 131.263 18.9533H134.863C134.671 16.5884 132.799 15.1133 129.319 15.1133C126.415 15.1133 124.015 16.4245 124.015 18.9533C124.015 21.763 126.295 22.325 128.431 22.6762C130.063 22.9572 131.551 23.0743 131.551 24.1513C131.551 24.924 130.807 25.3455 129.631 25.3455C128.335 25.3455 127.519 24.7601 127.375 23.566H123.679C123.799 26.2118 126.055 27.8274 129.655 27.8274Z" fill="#1A1A1A"/>
<path d="M140.561 27.8025C142.265 27.8025 143.345 27.1469 144.233 25.9762H144.305V27.4513H148.049V15.463H144.137V22.1596C144.137 23.5879 143.321 24.5713 141.977 24.5713C140.729 24.5713 140.129 23.8455 140.129 22.5342V15.463H136.241V23.3303C136.241 25.9996 137.729 27.8025 140.561 27.8025Z" fill="#1A1A1A"/>
<path d="M149.75 27.4508H153.662V20.7308C153.662 19.3025 154.382 18.2957 155.606 18.2957C156.782 18.2957 157.334 19.045 157.334 20.3328V27.4508H161.246V20.7308C161.246 19.3025 161.942 18.2957 163.19 18.2957C164.366 18.2957 164.918 19.045 164.918 20.3328V27.4508H168.83V19.6538C168.83 16.9611 167.438 15.1113 164.654 15.1113C163.07 15.1113 161.75 15.7669 160.79 17.2186H160.742C160.118 15.9308 158.894 15.1113 157.286 15.1113C155.51 15.1113 154.334 15.9308 153.566 17.1718H153.494V15.4625H149.75V27.4508Z" fill="#1A1A1A"/>
</g>
</g>
<defs>
<clipPath id="clip0_548_2543">
<rect width="170" height="40" fill="white"/>
</clipPath>
</defs>
</svg>
