<svg width="170" height="40" viewBox="0 0 170 40" fill="none" xmlns="http://www.w3.org/2000/svg">
<g clip-path="url(#clip0_253_22304)">
<path d="M49.8633 28.2454H61.9576V24.7332H54.1619V11.5039H49.8633V28.2454Z" fill="#1A1A1A"/>
<path d="M69.124 25.9045C67.3997 25.9045 66.5012 24.4528 66.5012 22.2752C66.5012 20.0977 67.3997 18.6226 69.124 18.6226C70.8483 18.6226 71.7712 20.0977 71.7712 22.2752C71.7712 24.4528 70.8483 25.9045 69.124 25.9045ZM69.1483 28.6206C73.1554 28.6206 75.7783 25.8811 75.7783 22.2752C75.7783 18.6694 73.1554 15.9299 69.1483 15.9299C65.1654 15.9299 62.494 18.6694 62.494 22.2752C62.494 25.8811 65.1654 28.6206 69.1483 28.6206Z" fill="#1A1A1A"/>
<path d="M82.7136 32.3902C84.5593 32.3902 86.1864 31.9921 87.2793 31.0555C88.275 30.1892 88.9307 28.878 88.9307 27.075V16.2575H85.1421V17.5453H85.0936C84.365 16.5384 83.2479 15.9062 81.5964 15.9062C78.5121 15.9062 76.375 18.3882 76.375 21.9004C76.375 25.5765 78.9736 27.5902 81.7664 27.5902C83.2721 27.5902 84.2193 27.0048 84.9479 26.2087H85.045V27.4028C85.045 28.8545 84.3407 29.6975 82.665 29.6975C81.3536 29.6975 80.6979 29.1589 80.4793 28.5267H76.6421C77.0307 31.0321 79.2893 32.3902 82.7136 32.3902ZM82.6893 24.757C81.2079 24.757 80.2364 23.5862 80.2364 21.7833C80.2364 19.957 81.2079 18.7862 82.6893 18.7862C84.3407 18.7862 85.215 20.1443 85.215 21.7599C85.215 23.4458 84.4136 24.757 82.6893 24.757Z" fill="#1A1A1A"/>
<path d="M96.7218 25.9043C94.9975 25.9043 94.0989 24.4526 94.0989 22.2751C94.0989 20.0975 94.9975 18.6224 96.7218 18.6224C98.4461 18.6224 99.3689 20.0975 99.3689 22.2751C99.3689 24.4526 98.4461 25.9043 96.7218 25.9043ZM96.7461 28.6204C100.753 28.6204 103.376 25.8809 103.376 22.2751C103.376 18.6692 100.753 15.9297 96.7461 15.9297C92.7632 15.9297 90.0918 18.6692 90.0918 22.2751C90.0918 25.8809 92.7632 28.6204 96.7461 28.6204Z" fill="#1A1A1A"/>
<path d="M104.531 28.2454H108.49V16.2571H104.531V28.2454ZM104.531 14.5946H108.49V11.5039H104.531V14.5946Z" fill="#1A1A1A"/>
<path d="M110.207 32.2028H114.166V27.0048H114.214C114.991 28.0116 116.133 28.6204 117.736 28.6204C120.99 28.6204 123.151 26.1384 123.151 22.2516C123.151 18.6458 121.136 15.9062 117.833 15.9062C116.133 15.9062 114.918 16.6321 114.068 17.7092H113.996V16.2575H110.207V32.2028ZM116.716 25.6702C115.016 25.6702 114.044 24.3355 114.044 22.3921C114.044 20.4487 114.918 18.9736 116.643 18.9736C118.343 18.9736 119.144 20.3316 119.144 22.3921C119.144 24.4292 118.221 25.6702 116.716 25.6702Z" fill="#1A1A1A"/>
<path d="M129.596 28.6204C132.85 28.6204 135.255 27.2623 135.255 24.6399C135.255 21.5726 132.68 21.0341 130.495 20.6828C128.916 20.4019 127.507 20.2848 127.507 19.4419C127.507 18.6926 128.26 18.3414 129.232 18.3414C130.325 18.3414 131.077 18.6692 131.223 19.7463H134.866C134.672 17.3814 132.777 15.9062 129.256 15.9062C126.317 15.9062 123.889 17.2175 123.889 19.7463C123.889 22.556 126.196 23.118 128.357 23.4692C130.009 23.7502 131.515 23.8672 131.515 24.9443C131.515 25.717 130.762 26.1384 129.572 26.1384C128.26 26.1384 127.435 25.5531 127.289 24.3589H123.549C123.67 27.0048 125.953 28.6204 129.596 28.6204Z" fill="#1A1A1A"/>
<path d="M140.633 28.5973C142.357 28.5973 143.45 27.9417 144.349 26.771H144.422V28.2461H148.21V16.2578H144.252V22.9544C144.252 24.3827 143.426 25.3661 142.066 25.3661C140.803 25.3661 140.196 24.6403 140.196 23.329V16.2578H136.262V24.1251C136.262 26.7944 137.767 28.5973 140.633 28.5973Z" fill="#1A1A1A"/>
<path d="M149.932 28.2458H153.89V21.5258C153.89 20.0975 154.619 19.0906 155.857 19.0906C157.047 19.0906 157.606 19.8399 157.606 21.1277V28.2458H161.564V21.5258C161.564 20.0975 162.269 19.0906 163.532 19.0906C164.722 19.0906 165.28 19.8399 165.28 21.1277V28.2458H169.239V20.4487C169.239 17.756 167.83 15.9062 165.013 15.9062C163.41 15.9062 162.074 16.5619 161.103 18.0136H161.055C160.423 16.7258 159.184 15.9062 157.557 15.9062C155.76 15.9062 154.57 16.7258 153.793 17.9667H153.72V16.2575H149.932V28.2458Z" fill="#1A1A1A"/>
<path d="M25.7124 1.92867L21.7326 0.900513L18.3787 12.9684L15.3508 2.07343L11.3709 3.10158L14.6424 14.8728L6.49386 7.01659L3.5804 9.82556L12.5183 18.4429L1.38757 15.5674L0.321167 19.4045L12.4829 22.5463C12.3436 21.9673 12.27 21.364 12.27 20.7441C12.27 16.3562 15.9594 12.7991 20.5105 12.7991C25.0616 12.7991 28.7511 16.3562 28.7511 20.7441C28.7511 21.36 28.6783 21.9596 28.5408 22.5352L39.5935 25.3905L40.6599 21.5535L28.4498 18.3991L39.5813 15.5234L38.5148 11.6863L26.3053 14.8405L34.4537 6.98434L31.5403 4.17537L22.7264 12.6732L25.7124 1.92867Z" fill="#9C9C55"/>
<path d="M28.5305 22.5801C28.1893 23.9709 27.4689 25.2204 26.4805 26.2214L34.4877 33.9415L37.4011 31.1326L28.5305 22.5801Z" fill="#9C9C55"/>
<path d="M26.399 26.3027C25.3986 27.2878 24.1345 28.0229 22.7168 28.4018L25.6305 38.8857L29.6103 37.8575L26.399 26.3027Z" fill="#9C9C55"/>
<path d="M22.5684 28.4384C21.9106 28.6015 21.2212 28.6881 20.5108 28.6881C19.7496 28.6881 19.0125 28.5886 18.3128 28.4023L15.3965 38.8958L19.3763 39.9239L22.5684 28.4384Z" fill="#9C9C55"/>
<path d="M18.1719 28.3644C16.7759 27.9668 15.5342 27.2223 14.5543 26.2344L6.52734 33.9734L9.44081 36.7824L18.1719 28.3644Z" fill="#9C9C55"/>
<path d="M14.4868 26.1666C13.5237 25.1725 12.8222 23.9397 12.4882 22.5703L1.39941 25.435L2.46581 29.2721L14.4868 26.1666Z" fill="#9C9C55"/>
</g>
<defs>
<clipPath id="clip0_253_22304">
<rect width="170" height="40" fill="white"/>
</clipPath>
</defs>
</svg>
