<svg width="170" height="37" viewBox="0 0 170 37" fill="none" xmlns="http://www.w3.org/2000/svg">
<g clip-path="url(#clip0_253_22291)">
<path fill-rule="evenodd" clip-rule="evenodd" d="M21.5073 10.8089C20.1233 9.79251 18.4962 9.25 16.8317 9.25V0C20.1607 0 23.4149 1.08501 26.1829 3.11781C28.9508 5.15061 31.1081 8.03992 32.3821 11.4203C33.656 14.8007 33.9894 18.5205 33.3399 22.1092C32.6905 25.6978 31.0874 28.9942 28.7335 31.5814C26.3795 34.1688 23.3804 35.9307 20.1154 36.6445C16.8504 37.3583 13.466 36.992 10.3905 35.5918C7.31488 34.1915 4.68613 31.8204 2.83665 28.778C0.987161 25.7357 0 22.1589 0 18.5H8.41584C8.41584 20.3295 8.90943 22.1179 9.83416 23.639C10.7589 25.1602 12.0733 26.3458 13.6111 27.0459C15.1489 27.746 16.841 27.9292 18.4735 27.5722C20.106 27.2154 21.6056 26.3344 22.7826 25.0408C23.9596 23.7471 24.7611 22.0989 25.0858 20.3046C25.4105 18.5103 25.2439 16.6504 24.6069 14.9602C23.9699 13.27 22.8913 11.8253 21.5073 10.8089Z" fill="#9C9C55"/>
<path fill-rule="evenodd" clip-rule="evenodd" d="M8.41584 4.88856e-06C8.41584 1.21473 8.19816 2.41756 7.77522 3.53983C7.35228 4.66209 6.73238 5.6818 5.9509 6.54074C5.16942 7.39969 4.24166 8.08103 3.2206 8.54589C2.19954 9.01074 1.10518 9.25 3.67865e-07 9.25L0 18.5C2.21037 18.5 4.39909 18.0215 6.44121 17.0918C8.48333 16.1621 10.3389 14.7994 11.9018 13.0814C13.4648 11.3636 14.7046 9.32419 15.5505 7.07965C16.3963 4.83512 16.8317 2.42945 16.8317 0L8.41584 4.88856e-06Z" fill="#9C9C55"/>
<path d="M105.719 13.3691H101.636V27.6255H105.719V13.3691Z" fill="#1A1A1A"/>
<path d="M102.09 10.6987C102.517 11.1681 103.05 11.4027 103.691 11.4027C104.331 11.4027 104.856 11.1681 105.265 10.6987C105.675 10.2099 105.88 9.62312 105.88 8.93867C105.88 8.23467 105.675 7.64796 105.265 7.17864C104.856 6.70927 104.331 6.47461 103.691 6.47461C103.05 6.47461 102.517 6.70927 102.09 7.17864C101.68 7.64796 101.476 8.23467 101.476 8.93867C101.476 9.62312 101.68 10.2099 102.09 10.6987Z" fill="#1A1A1A"/>
<path d="M43.0527 27.624V6.91406H47.2429V23.5759H55.5965V27.624H43.0527Z" fill="#1A1A1A"/>
<path fill-rule="evenodd" clip-rule="evenodd" d="M63.1421 27.9467C61.8077 27.9467 60.5979 27.624 59.5125 26.9787C58.4449 26.3138 57.5998 25.4142 56.977 24.2799C56.3543 23.1456 56.043 21.8745 56.043 20.4665C56.043 19.0584 56.3543 17.7971 56.977 16.6824C57.5998 15.5677 58.4449 14.6876 59.5125 14.0423C60.58 13.3774 61.79 13.0449 63.1421 13.0449C64.4944 13.0449 65.7043 13.3677 66.7718 14.0129C67.8394 14.6583 68.6846 15.5482 69.3073 16.6824C69.93 17.7971 70.2414 19.0584 70.2414 20.4665C70.2414 21.8745 69.93 23.1456 69.3073 24.2799C68.6846 25.4142 67.8394 26.3138 66.7718 26.9787C65.7043 27.624 64.4944 27.9467 63.1421 27.9467ZM63.1421 23.8693C63.7293 23.8693 64.2453 23.7324 64.6902 23.4586C65.1349 23.1653 65.473 22.7644 65.7043 22.2559C65.9534 21.7279 66.0779 21.1314 66.0779 20.4665C66.0779 19.8016 65.9534 19.2247 65.7043 18.7358C65.4552 18.2273 65.1083 17.8362 64.6634 17.5624C64.2364 17.269 63.7293 17.1224 63.1421 17.1224C62.5728 17.1224 62.0658 17.269 61.6209 17.5624C61.1761 17.8362 60.8291 18.2273 60.58 18.7358C60.3309 19.2443 60.2065 19.8309 60.2065 20.4958C60.2065 21.1412 60.3309 21.7279 60.58 22.2559C60.8291 22.7644 61.1761 23.1653 61.6209 23.4586C62.0658 23.7324 62.5728 23.8693 63.1421 23.8693Z" fill="#1A1A1A"/>
<path fill-rule="evenodd" clip-rule="evenodd" d="M73.4745 33.1995C74.5598 33.747 75.8142 34.0208 77.2377 34.0208C78.6255 34.0208 79.8621 33.7176 80.9474 33.1114C82.0328 32.5051 82.8867 31.6643 83.5095 30.5887C84.1322 29.5131 84.444 28.242 84.444 26.7752V13.3696H80.4403V14.3274C80.1425 14.052 79.8043 13.8207 79.4261 13.6336C78.7322 13.262 77.9404 13.0762 77.0509 13.0762C75.8587 13.0762 74.8 13.3891 73.8749 14.0149C72.9496 14.6211 72.2202 15.462 71.6863 16.5376C71.1525 17.5937 70.8857 18.7866 70.8857 20.1164C70.8857 21.4267 71.1525 22.6196 71.6863 23.6952C72.2202 24.7708 72.9496 25.6215 73.8749 26.2472C74.8 26.873 75.8587 27.1859 77.0509 27.1859C77.9226 27.1859 78.7144 27.0002 79.4261 26.6286C79.7709 26.4486 80.0822 26.2365 80.3602 25.9922V26.8926C80.3602 27.89 80.0667 28.6624 79.4795 29.21C78.9102 29.7576 78.1184 30.0313 77.1042 30.0313C76.2858 30.0313 75.583 29.8749 74.9958 29.562C74.4265 29.2491 73.9104 28.7895 73.4478 28.1833L70.9391 30.9407C71.5618 31.9185 72.407 32.6715 73.4745 33.1995ZM79.2927 22.7858C78.8834 23.0596 78.3942 23.1965 77.8248 23.1965C77.2554 23.1965 76.7572 23.0596 76.3302 22.7858C75.9209 22.512 75.6007 22.1404 75.3694 21.6711C75.1381 21.1822 75.0225 20.6639 75.0225 20.1164C75.0225 19.5297 75.1381 19.0017 75.3694 18.5324C75.6007 18.063 75.9299 17.6915 76.3569 17.4177C76.7839 17.1439 77.2732 17.007 77.8248 17.007C78.3942 17.007 78.8834 17.1439 79.2927 17.4177C79.7197 17.6915 80.0399 18.063 80.2535 18.5324C80.4848 19.0017 80.6004 19.5297 80.6004 20.1164C80.6004 20.7031 80.4848 21.2311 80.2535 21.7004C80.0399 22.1502 79.7197 22.512 79.2927 22.7858Z" fill="#1A1A1A"/>
<path fill-rule="evenodd" clip-rule="evenodd" d="M93.0381 27.9467C91.7033 27.9467 90.4931 27.624 89.4083 26.9787C88.3404 26.3138 87.4954 25.4142 86.8726 24.2799C86.2499 23.1456 85.9385 21.8745 85.9385 20.4665C85.9385 19.0584 86.2499 17.7971 86.8726 16.6824C87.4954 15.5677 88.3404 14.6876 89.4083 14.0423C90.4755 13.3774 91.6857 13.0449 93.0381 13.0449C94.3897 13.0449 95.5999 13.3677 96.667 14.0129C97.735 14.6583 98.5799 15.5482 99.2027 16.6824C99.8255 17.7971 100.137 19.0584 100.137 20.4665C100.137 21.8745 99.8255 23.1456 99.2027 24.2799C98.5799 25.4142 97.735 26.3138 96.667 26.9787C95.5999 27.624 94.3897 27.9467 93.0381 27.9467ZM93.0381 23.8693C93.6247 23.8693 94.1406 23.7324 94.5858 23.4586C95.0301 23.1653 95.3684 22.7644 95.5999 22.2559C95.849 21.7279 95.9735 21.1314 95.9735 20.4665C95.9735 19.8016 95.849 19.2247 95.5999 18.7358C95.3508 18.2273 95.004 17.8362 94.5588 17.5624C94.1321 17.269 93.6247 17.1224 93.0381 17.1224C92.4683 17.1224 91.9609 17.269 91.5165 17.5624C91.0713 17.8362 90.7246 18.2273 90.4755 18.7358C90.2263 19.2443 90.1018 19.8309 90.1018 20.4958C90.1018 21.1412 90.2263 21.7279 90.4755 22.2559C90.7246 22.7644 91.0713 23.1653 91.5165 23.4586C91.9609 23.7324 92.4683 23.8693 93.0381 23.8693Z" fill="#1A1A1A"/>
<path fill-rule="evenodd" clip-rule="evenodd" d="M115.534 27.9193C114.663 27.9193 113.862 27.7335 113.132 27.362C112.748 27.1664 112.402 26.933 112.092 26.6616V33.6395H108.062V13.3696H112.145V14.3535C112.441 14.0872 112.77 13.857 113.132 13.6629C113.862 13.2717 114.663 13.0762 115.534 13.0762C116.762 13.0762 117.847 13.3989 118.79 14.0443C119.751 14.6896 120.498 15.5696 121.032 16.6843C121.584 17.799 121.859 19.0702 121.859 20.4977C121.859 21.9254 121.584 23.1965 121.032 24.3112C120.498 25.4259 119.751 26.3059 118.79 26.9513C117.847 27.5966 116.762 27.9193 115.534 27.9193ZM114.787 23.8712C115.374 23.8712 115.882 23.7245 116.308 23.4312C116.753 23.1379 117.1 22.7369 117.349 22.2285C117.598 21.72 117.723 21.1431 117.723 20.4977C117.723 19.8328 117.598 19.2462 117.349 18.7377C117.1 18.2293 116.753 17.8382 116.308 17.5644C115.882 17.271 115.383 17.1243 114.814 17.1243C114.245 17.1243 113.737 17.271 113.293 17.5644C112.865 17.8382 112.528 18.2293 112.279 18.7377C112.03 19.2462 111.905 19.8328 111.905 20.4977C111.905 21.1431 112.02 21.72 112.252 22.2285C112.501 22.7369 112.848 23.1379 113.293 23.4312C113.737 23.7245 114.235 23.8712 114.787 23.8712Z" fill="#1A1A1A"/>
<path d="M125.856 27.6554C126.603 27.8705 127.359 27.978 128.124 27.978C129.743 27.978 131.024 27.5674 131.967 26.746C132.928 25.9247 133.408 24.8198 133.408 23.4313C133.408 22.5317 133.258 21.8081 132.955 21.2606C132.653 20.6935 132.261 20.2436 131.781 19.9112C131.3 19.5787 130.793 19.3147 130.259 19.1191C129.726 18.9236 129.218 18.7573 128.738 18.6204C128.258 18.4835 127.866 18.3271 127.563 18.1511C127.261 17.9751 127.11 17.7404 127.11 17.4471C127.11 17.1733 127.226 16.9679 127.457 16.831C127.688 16.6746 128.035 16.5965 128.498 16.5965C128.978 16.5965 129.467 16.7039 129.965 16.9191C130.481 17.1342 130.944 17.5058 131.353 18.0338L133.675 15.4524C133.088 14.631 132.323 14.015 131.38 13.6044C130.455 13.1741 129.441 12.959 128.338 12.959C127.288 12.959 126.372 13.1545 125.589 13.5456C124.806 13.9368 124.201 14.4746 123.774 15.159C123.347 15.8239 123.133 16.616 123.133 17.5351C123.133 18.3956 123.285 19.1094 123.587 19.6765C123.889 20.224 124.281 20.6543 124.761 20.9672C125.242 21.2801 125.749 21.5246 126.283 21.7005C126.816 21.8765 127.324 22.0428 127.804 22.1993C128.284 22.3362 128.676 22.5024 128.978 22.6979C129.299 22.874 129.459 23.138 129.459 23.4899C129.459 23.7637 129.325 23.9788 129.058 24.1353C128.809 24.2917 128.445 24.37 127.964 24.37C127.27 24.37 126.629 24.2331 126.043 23.9593C125.455 23.666 124.948 23.2651 124.521 22.7566L122.199 25.338C122.644 25.866 123.178 26.3354 123.801 26.746C124.441 27.1371 125.126 27.4402 125.856 27.6554Z" fill="#1A1A1A"/>
<path d="M140.854 27.9482C139.662 27.9482 138.604 27.6842 137.679 27.1562C136.771 26.6086 136.06 25.8654 135.544 24.9267C135.027 23.9685 134.77 22.8734 134.77 21.6413V13.3691H138.853V21.5827C138.853 22.0715 138.924 22.492 139.067 22.844C139.227 23.1961 139.458 23.4699 139.76 23.6654C140.063 23.861 140.427 23.9587 140.854 23.9587C141.459 23.9587 141.94 23.7534 142.296 23.3427C142.652 22.9125 142.829 22.3258 142.829 21.5827V13.3691H146.913V21.612C146.913 22.8636 146.655 23.9685 146.138 24.9267C145.623 25.8654 144.911 26.6086 144.003 27.1562C143.096 27.6842 142.047 27.9482 140.854 27.9482Z" fill="#1A1A1A"/>
<path d="M153.026 13.3696H148.942V27.626H153.026V19.295C153.026 18.8062 153.115 18.3955 153.293 18.063C153.489 17.7306 153.747 17.4763 154.067 17.3004C154.387 17.1047 154.752 17.007 155.161 17.007C155.748 17.007 156.237 17.2123 156.629 17.623C157.038 18.0141 157.243 18.5715 157.243 19.295V27.626H161.326V19.295C161.326 18.8062 161.415 18.3955 161.593 18.063C161.789 17.7306 162.047 17.4763 162.367 17.3004C162.687 17.1047 163.052 17.007 163.461 17.007C164.049 17.007 164.538 17.2123 164.929 17.623C165.338 18.0141 165.543 18.5715 165.543 19.295V27.626H169.627V18.7964C169.627 17.6035 169.395 16.5865 168.933 15.7456C168.487 14.8851 167.874 14.23 167.091 13.7803C166.326 13.3108 165.445 13.0762 164.449 13.0762C163.434 13.0762 162.518 13.3206 161.7 13.8096C161.168 14.1211 160.704 14.5231 160.305 15.0155C159.934 14.5004 159.483 14.0789 158.951 13.7509C158.239 13.3011 157.43 13.0762 156.523 13.0762C155.561 13.0762 154.699 13.3011 153.934 13.7509C153.601 13.938 153.298 14.1621 153.026 14.4233V13.3696Z" fill="#1A1A1A"/>
</g>
<defs>
<clipPath id="clip0_253_22291">
<rect width="170" height="37" fill="white"/>
</clipPath>
</defs>
</svg>
