<svg width="170" height="40" viewBox="0 0 170 40" fill="none" xmlns="http://www.w3.org/2000/svg">
<g clip-path="url(#clip0_253_22279)">
<path d="M51.2773 28.6087H63.2293V25.0965H55.5253V11.8672H51.2773V28.6087Z" fill="#1A1A1A"/>
<path d="M70.3108 26.2657C68.6068 26.2657 67.7188 24.8139 67.7188 22.6364C67.7188 20.4588 68.6068 18.9837 70.3108 18.9837C72.0148 18.9837 72.9268 20.4588 72.9268 22.6364C72.9268 24.8139 72.0148 26.2657 70.3108 26.2657ZM70.3348 28.9817C74.2948 28.9817 76.8868 26.2422 76.8868 22.6364C76.8868 19.0305 74.2948 16.291 70.3348 16.291C66.3988 16.291 63.7588 19.0305 63.7588 22.6364C63.7588 26.2422 66.3988 28.9817 70.3348 28.9817Z" fill="#1A1A1A"/>
<path d="M83.7406 32.7515C85.5646 32.7515 87.1726 32.3534 88.2526 31.4168C89.2366 30.5505 89.8846 29.2393 89.8846 27.4364V16.6188H86.1406V17.9066H86.0926C85.3726 16.8998 84.2686 16.2676 82.6366 16.2676C79.5886 16.2676 77.4766 18.7495 77.4766 22.2617C77.4766 25.9378 80.0446 27.9515 82.8046 27.9515C84.2926 27.9515 85.2286 27.3661 85.9486 26.57H86.0446V27.7642C86.0446 29.2159 85.3486 30.0588 83.6926 30.0588C82.3966 30.0588 81.7486 29.5203 81.5326 28.8881H77.7406C78.1246 31.3934 80.3566 32.7515 83.7406 32.7515ZM83.7166 25.1183C82.2526 25.1183 81.2926 23.9476 81.2926 22.1447C81.2926 20.3183 82.2526 19.1476 83.7166 19.1476C85.3486 19.1476 86.2126 20.5056 86.2126 22.1212C86.2126 23.8071 85.4206 25.1183 83.7166 25.1183Z" fill="#1A1A1A"/>
<path d="M97.5832 26.2657C95.8792 26.2657 94.9912 24.8139 94.9912 22.6364C94.9912 20.4588 95.8792 18.9837 97.5832 18.9837C99.2872 18.9837 100.199 20.4588 100.199 22.6364C100.199 24.8139 99.2872 26.2657 97.5832 26.2657ZM97.6072 28.9817C101.567 28.9817 104.159 26.2422 104.159 22.6364C104.159 19.0305 101.567 16.291 97.6072 16.291C93.6712 16.291 91.0312 19.0305 91.0312 22.6364C91.0312 26.2422 93.6712 28.9817 97.6072 28.9817Z" fill="#1A1A1A"/>
<path d="M105.302 28.6087H109.214V16.6204H105.302V28.6087ZM105.302 14.9579H109.214V11.8672H105.302V14.9579Z" fill="#1A1A1A"/>
<path d="M110.911 32.5642H114.823V27.3661H114.871C115.639 28.3729 116.767 28.9817 118.351 28.9817C121.567 28.9817 123.703 26.4998 123.703 22.6129C123.703 19.0071 121.711 16.2676 118.447 16.2676C116.767 16.2676 115.567 16.9934 114.727 18.0705H114.655V16.6188H110.911V32.5642ZM117.343 26.0315C115.663 26.0315 114.703 24.6968 114.703 22.7534C114.703 20.81 115.567 19.3349 117.271 19.3349C118.951 19.3349 119.743 20.6929 119.743 22.7534C119.743 24.7905 118.831 26.0315 117.343 26.0315Z" fill="#1A1A1A"/>
<path d="M130.072 28.9817C133.288 28.9817 135.664 27.6237 135.664 25.0012C135.664 21.9339 133.12 21.3954 130.96 21.0442C129.4 20.7632 128.008 20.6461 128.008 19.8032C128.008 19.0539 128.752 18.7027 129.712 18.7027C130.792 18.7027 131.536 19.0305 131.68 20.1076H135.28C135.088 17.7427 133.216 16.2676 129.736 16.2676C126.832 16.2676 124.432 17.5788 124.432 20.1076C124.432 22.9173 126.712 23.4793 128.848 23.8305C130.48 24.1115 131.968 24.2286 131.968 25.3056C131.968 26.0783 131.224 26.4998 130.048 26.4998C128.752 26.4998 127.936 25.9144 127.792 24.7203H124.096C124.216 27.3661 126.472 28.9817 130.072 28.9817Z" fill="#1A1A1A"/>
<path d="M140.978 28.9587C142.682 28.9587 143.762 28.303 144.65 27.1323H144.722V28.6074H148.466V16.6191H144.554V23.3157C144.554 24.744 143.738 25.7274 142.394 25.7274C141.146 25.7274 140.546 25.0016 140.546 23.6904V16.6191H136.658V24.4865C136.658 27.1557 138.146 28.9587 140.978 28.9587Z" fill="#1A1A1A"/>
<path d="M150.168 28.6071H154.08V21.8871C154.08 20.4588 154.8 19.452 156.024 19.452C157.2 19.452 157.752 20.2012 157.752 21.489V28.6071H161.664V21.8871C161.664 20.4588 162.36 19.452 163.608 19.452C164.784 19.452 165.336 20.2012 165.336 21.489V28.6071H169.248V20.81C169.248 18.1173 167.856 16.2676 165.072 16.2676C163.488 16.2676 162.168 16.9232 161.208 18.3749H161.16C160.536 17.0871 159.312 16.2676 157.704 16.2676C155.928 16.2676 154.752 17.0871 153.984 18.3281H153.912V16.6188H150.168V28.6071Z" fill="#1A1A1A"/>
<path fill-rule="evenodd" clip-rule="evenodd" d="M20.1015 39.3388C31.1473 39.3388 40.1015 30.6029 40.1015 19.8266C40.1015 9.05035 31.1473 0.314453 20.1015 0.314453C9.05585 0.314453 0.101562 9.05035 0.101562 19.8266C0.101562 30.6029 9.05585 39.3388 20.1015 39.3388ZM23.1885 15.3901C24.8933 13.7268 24.8933 11.0301 23.1885 9.3668C21.4836 7.70351 18.7195 7.70351 17.0146 9.3668C15.3098 11.0301 15.3098 13.7268 17.0146 15.3901L20.1015 18.4017L23.1885 15.3901ZM24.649 22.8383C26.3539 24.5016 29.118 24.5016 30.8229 22.8383C32.5277 21.175 32.5277 18.4783 30.8229 16.815C29.118 15.1518 26.3539 15.1518 24.649 16.815L21.5621 19.8267L24.649 22.8383ZM23.1885 30.2865C24.8933 28.6232 24.8933 25.9265 23.1885 24.2632L20.1015 21.2516L17.0146 24.2632C15.3098 25.9265 15.3098 28.6232 17.0146 30.2865C18.7195 31.9498 21.4836 31.9498 23.1885 30.2865ZM9.38019 22.8383C7.67535 21.175 7.67535 18.4783 9.38019 16.815C11.0851 15.1518 13.8492 15.1518 15.5541 16.815L18.641 19.8267L15.5541 22.8383C13.8492 24.5016 11.0851 24.5016 9.38019 22.8383Z" fill="#9C9C55"/>
</g>
<defs>
<clipPath id="clip0_253_22279">
<rect width="170" height="40" fill="white"/>
</clipPath>
</defs>
</svg>
