<svg width="170" height="40" viewBox="0 0 170 40" fill="none" xmlns="http://www.w3.org/2000/svg">
<g clip-path="url(#clip0_253_22266)">
<path d="M51.8604 27.4504H63.8124V23.9383H56.1084V10.709H51.8604V27.4504Z" fill="#1A1A1A"/>
<path d="M70.8938 25.1094C69.1898 25.1094 68.3018 23.6577 68.3018 21.4801C68.3018 19.3026 69.1898 17.8274 70.8938 17.8274C72.5978 17.8274 73.5098 19.3026 73.5098 21.4801C73.5098 23.6577 72.5978 25.1094 70.8938 25.1094ZM70.9178 27.8255C74.8778 27.8255 77.4698 25.086 77.4698 21.4801C77.4698 17.8743 74.8778 15.1348 70.9178 15.1348C66.9818 15.1348 64.3418 17.8743 64.3418 21.4801C64.3418 25.086 66.9818 27.8255 70.9178 27.8255Z" fill="#1A1A1A"/>
<path d="M84.3236 31.5952C86.1476 31.5952 87.7556 31.1972 88.8356 30.2606C89.8196 29.3943 90.4676 28.083 90.4676 26.2801V15.4625H86.7236V16.7504H86.6756C85.9556 15.7435 84.8516 15.1113 83.2196 15.1113C80.1716 15.1113 78.0596 17.5933 78.0596 21.1055C78.0596 24.7816 80.6276 26.7952 83.3876 26.7952C84.8756 26.7952 85.8116 26.2099 86.5316 25.4138H86.6276V26.6079C86.6276 28.0596 85.9316 28.9025 84.2756 28.9025C82.9796 28.9025 82.3316 28.364 82.1156 27.7318H78.3236C78.7076 30.2372 80.9396 31.5952 84.3236 31.5952ZM84.2996 23.9621C82.8356 23.9621 81.8756 22.7913 81.8756 20.9884C81.8756 19.1621 82.8356 17.9913 84.2996 17.9913C85.9316 17.9913 86.7956 19.3494 86.7956 20.965C86.7956 22.6508 86.0036 23.9621 84.2996 23.9621Z" fill="#1A1A1A"/>
<path d="M98.1663 25.1094C96.4623 25.1094 95.5743 23.6577 95.5743 21.4801C95.5743 19.3026 96.4623 17.8274 98.1663 17.8274C99.8703 17.8274 100.782 19.3026 100.782 21.4801C100.782 23.6577 99.8703 25.1094 98.1663 25.1094ZM98.1903 27.8255C102.15 27.8255 104.742 25.086 104.742 21.4801C104.742 17.8743 102.15 15.1348 98.1903 15.1348C94.2543 15.1348 91.6143 17.8743 91.6143 21.4801C91.6143 25.086 94.2543 27.8255 98.1903 27.8255Z" fill="#1A1A1A"/>
<path d="M105.884 27.4504H109.796V15.4622H105.884V27.4504ZM105.884 13.7997H109.796V10.709H105.884V13.7997Z" fill="#1A1A1A"/>
<path d="M111.494 31.4079H115.406V26.2099H115.454C116.222 27.2167 117.35 27.8255 118.934 27.8255C122.15 27.8255 124.286 25.3435 124.286 21.4567C124.286 17.8508 122.294 15.1113 119.03 15.1113C117.35 15.1113 116.15 15.8372 115.31 16.9143H115.238V15.4625H111.494V31.4079ZM117.926 24.8752C116.246 24.8752 115.286 23.5406 115.286 21.5972C115.286 19.6538 116.15 18.1786 117.854 18.1786C119.534 18.1786 120.326 19.5367 120.326 21.5972C120.326 23.6343 119.414 24.8752 117.926 24.8752Z" fill="#1A1A1A"/>
<path d="M130.655 27.8274C133.871 27.8274 136.247 26.4694 136.247 23.8469C136.247 20.7796 133.703 20.2411 131.543 19.8899C129.983 19.6089 128.591 19.4918 128.591 18.6489C128.591 17.8996 129.335 17.5484 130.295 17.5484C131.375 17.5484 132.119 17.8762 132.263 18.9533H135.863C135.671 16.5884 133.799 15.1133 130.319 15.1133C127.415 15.1133 125.015 16.4245 125.015 18.9533C125.015 21.763 127.295 22.325 129.431 22.6762C131.063 22.9572 132.551 23.0743 132.551 24.1513C132.551 24.924 131.807 25.3455 130.631 25.3455C129.335 25.3455 128.519 24.7601 128.375 23.566H124.679C124.799 26.2118 127.055 27.8274 130.655 27.8274Z" fill="#1A1A1A"/>
<path d="M141.561 27.8025C143.265 27.8025 144.345 27.1469 145.233 25.9762H145.305V27.4513H149.049V15.463H145.137V22.1596C145.137 23.5879 144.321 24.5713 142.977 24.5713C141.729 24.5713 141.129 23.8455 141.129 22.5342V15.463H137.241V23.3303C137.241 25.9996 138.729 27.8025 141.561 27.8025Z" fill="#1A1A1A"/>
<path d="M150.75 27.4508H154.662V20.7308C154.662 19.3025 155.382 18.2957 156.606 18.2957C157.782 18.2957 158.334 19.045 158.334 20.3328V27.4508H162.246V20.7308C162.246 19.3025 162.942 18.2957 164.19 18.2957C165.366 18.2957 165.918 19.045 165.918 20.3328V27.4508H169.83V19.6538C169.83 16.9611 168.438 15.1113 165.654 15.1113C164.07 15.1113 162.75 15.7669 161.79 17.2186H161.742C161.118 15.9308 159.894 15.1113 158.286 15.1113C156.51 15.1113 155.334 15.9308 154.566 17.1718H154.494V15.4625H150.75V27.4508Z" fill="#1A1A1A"/>
<path fill-rule="evenodd" clip-rule="evenodd" d="M20.6836 39.1591C31.7293 39.1591 40.6836 30.4232 40.6836 19.6469C40.6836 8.87068 31.7293 0.134766 20.6836 0.134766C9.63788 0.134766 0.683594 8.87068 0.683594 19.6469C0.683594 30.4232 9.63788 39.1591 20.6836 39.1591ZM26.9229 9.22437C27.2266 8.17189 26.1797 7.54953 25.2236 8.21408L11.8767 17.4904C10.8398 18.2111 11.0029 19.6469 12.1217 19.6469H15.6363V19.6204H22.4861L16.9048 21.5417L14.4443 30.0696C14.1406 31.1221 15.1874 31.7444 16.1436 31.0798L29.4905 21.8035C30.5274 21.0828 30.3642 19.6469 29.2455 19.6469H23.9157L26.9229 9.22437Z" fill="#9C9C55"/>
</g>
<defs>
<clipPath id="clip0_253_22266">
<rect width="170" height="40" fill="white"/>
</clipPath>
</defs>
</svg>
