<svg width="160" height="160" viewBox="0 0 160 160" fill="none" xmlns="http://www.w3.org/2000/svg">
<circle cx="80" cy="80" r="80" fill="#9C9C55"/>
<circle cx="80" cy="80.0007" r="42.6667" fill="#1A1A1A"/>
<path d="M86.3458 24.9821C85.1706 24.8403 84.1495 24.4471 83.2824 23.8025C82.4153 23.1579 81.7732 22.2974 81.356 21.2211C80.9388 20.1448 80.8172 18.8911 80.9911 17.4602C81.1665 16.0174 81.5857 14.823 82.2487 13.877C82.9184 12.9258 83.7511 12.2433 84.7469 11.8295C85.7493 11.4105 86.8321 11.2712 87.9954 11.4115C88.7669 11.5046 89.4688 11.7003 90.101 11.9986C90.7339 12.2909 91.2775 12.6745 91.7316 13.1493C92.1924 13.6189 92.5468 14.1717 92.7947 14.8075C93.0433 15.4375 93.1657 16.1393 93.162 16.9128L90.331 16.5712C90.3215 16.2041 90.2542 15.866 90.1292 15.5569C90.0101 15.2485 89.8351 14.9784 89.6044 14.7466C89.3795 14.5155 89.1104 14.327 88.7969 14.1812C88.4901 14.0301 88.1438 13.9314 87.758 13.8848C87.0814 13.8032 86.4641 13.9027 85.906 14.1833C85.3547 14.4588 84.8973 14.9016 84.5341 15.5117C84.1775 16.1167 83.9432 16.8804 83.8311 17.8028C83.7168 18.743 83.7629 19.5526 83.9694 20.2315C84.1767 20.9045 84.5157 21.4344 84.9866 21.8212C85.4575 22.208 86.0283 22.4419 86.6989 22.5228C87.0728 22.5679 87.4261 22.5595 87.7588 22.4977C88.0915 22.4358 88.394 22.3253 88.6663 22.1662C88.9386 22.007 89.1743 21.8015 89.3736 21.5495C89.5795 21.2924 89.7337 20.99 89.8361 20.6424L92.6672 20.984C92.5219 21.5844 92.2697 22.148 91.9106 22.6747C91.5574 23.202 91.1076 23.6577 90.5611 24.0418C90.0153 24.4199 89.3883 24.6982 88.6801 24.8768C87.9726 25.0494 87.1945 25.0845 86.3458 24.9821Z" fill="white"/>
<path d="M98.0482 27.769C97.0959 27.4325 96.3424 26.9387 95.7877 26.2877C95.2405 25.633 94.9071 24.8768 94.7874 24.0193C94.6753 23.1581 94.7911 22.2447 95.1349 21.2792C95.4826 20.3024 95.9713 19.5176 96.601 18.9249C97.2383 18.3285 97.9754 17.9507 98.8123 17.7914C99.6569 17.6285 100.555 17.7153 101.508 18.0518C102.465 18.3903 103.218 18.8868 103.765 19.5415C104.32 20.1926 104.653 20.9488 104.765 21.8099C104.885 22.6675 104.771 23.5847 104.423 24.5615C104.08 25.527 103.589 26.308 102.952 26.9043C102.322 27.4971 101.585 27.8749 100.74 28.0378C99.9034 28.1971 99.006 28.1075 98.0482 27.769ZM98.7905 25.7372C99.2244 25.8905 99.6308 25.8983 100.01 25.7604C100.391 25.617 100.73 25.3578 101.029 24.9829C101.333 24.61 101.582 24.1513 101.775 23.6068C101.971 23.0567 102.068 22.5442 102.066 22.0694C102.069 21.5966 101.967 21.1878 101.76 20.8429C101.553 20.4979 101.233 20.2488 100.799 20.0955C100.359 19.9402 99.9475 19.9305 99.5629 20.0663C99.184 20.2042 98.8435 20.4567 98.5415 20.824C98.2451 21.1933 97.999 21.653 97.8031 22.2031C97.6093 22.7476 97.5097 23.2591 97.5043 23.7375C97.5045 24.2179 97.6072 24.6334 97.8122 24.9839C98.0249 25.3308 98.351 25.5819 98.7905 25.7372Z" fill="white"/>
<path d="M109.668 26.4577L106.705 31.4168L104.324 30.0043L109.453 21.4219L111.795 22.8115L110.882 24.3392L110.967 24.3895C111.465 23.9986 112.014 23.7838 112.615 23.745C113.216 23.7062 113.837 23.8773 114.479 24.2582C115.075 24.6117 115.516 25.05 115.802 25.5731C116.093 26.0992 116.218 26.676 116.177 27.3033C116.136 27.9306 115.915 28.5795 115.514 29.2499L112.252 34.708L109.871 33.2955L112.881 28.2597C113.193 27.7377 113.302 27.2475 113.207 26.7892C113.115 26.3257 112.83 25.9523 112.352 25.6689C112.034 25.4799 111.709 25.384 111.376 25.381C111.047 25.3729 110.735 25.4582 110.441 25.6369C110.146 25.8157 109.889 26.0893 109.668 26.4577Z" fill="white"/>
<path d="M123.994 31.5124L122.654 33.1213L118.01 29.2815L119.35 27.6726L123.994 31.5124ZM121.929 26.7167L124.061 28.4797L118.105 35.6302C117.892 35.8869 117.791 36.1246 117.803 36.3435C117.818 36.5578 117.953 36.7695 118.206 36.9787C118.289 37.0472 118.386 37.1164 118.499 37.1863C118.612 37.2562 118.713 37.3124 118.801 37.355L117.811 39.2296C117.519 39.1044 117.249 38.9666 117.002 38.8161C116.759 38.6694 116.532 38.5086 116.32 38.3336C115.552 37.6984 115.117 37.0175 115.015 36.2909C114.917 35.5598 115.158 34.8458 115.738 34.1491L121.929 26.7167Z" fill="white"/>
<path d="M120.477 42.3978C120.056 41.9259 119.759 41.4275 119.587 40.9027C119.423 40.3784 119.411 39.863 119.551 39.3565C119.691 38.85 120.007 38.379 120.498 37.9437C120.918 37.5717 121.335 37.3387 121.747 37.2447C122.163 37.1468 122.576 37.152 122.984 37.2603C123.393 37.3686 123.791 37.5501 124.178 37.8048C124.565 38.0595 124.944 38.358 125.313 38.7003C125.739 39.0965 126.089 39.4081 126.363 39.6351C126.638 39.8622 126.869 40.0002 127.057 40.0491C127.253 40.0986 127.429 40.0541 127.585 39.9156L127.619 39.8859C127.927 39.6128 128.079 39.3032 128.074 38.9569C128.073 38.6151 127.915 38.2684 127.602 37.9167C127.272 37.5472 126.925 37.3244 126.561 37.2482C126.206 37.1726 125.871 37.2099 125.557 37.3603L124.002 35.3074C124.545 35.0016 125.109 34.8448 125.693 34.8369C126.283 34.825 126.867 34.9647 127.447 35.256C128.036 35.5478 128.596 35.992 129.128 36.5885C129.498 37.0025 129.802 37.4422 130.041 37.9077C130.281 38.3731 130.429 38.8438 130.485 39.3196C130.55 39.796 130.499 40.2634 130.333 40.7219C130.166 41.1805 129.861 41.6057 129.419 41.9974L124.365 46.4732L122.608 44.5034L123.653 43.5773L123.606 43.5239C123.262 43.6135 122.911 43.6372 122.553 43.5952C122.2 43.5492 121.847 43.4315 121.494 43.2421C121.146 43.0487 120.807 42.7672 120.477 42.3978ZM122.442 41.7217C122.712 42.0244 123.01 42.2381 123.338 42.3628C123.673 42.4879 124.001 42.524 124.322 42.471C124.651 42.4186 124.945 42.2776 125.205 42.0481L126.002 41.3417C125.906 41.315 125.789 41.2596 125.65 41.1755C125.515 41.0959 125.372 40.9989 125.222 40.8847C125.072 40.7704 124.925 40.6542 124.779 40.536C124.638 40.4138 124.509 40.305 124.392 40.2095C124.138 39.9963 123.889 39.8341 123.646 39.7228C123.407 39.6076 123.175 39.5581 122.949 39.5745C122.732 39.5913 122.526 39.6868 122.329 39.8609C122.048 40.1102 121.924 40.4025 121.96 40.7379C121.995 41.0733 122.156 41.4012 122.442 41.7217Z" fill="white"/>
<path d="M127.75 52.0934C127.223 51.2206 126.957 50.3582 126.952 49.5063C126.952 48.6513 127.181 47.8573 127.639 47.1244C128.101 46.3885 128.768 45.7596 129.639 45.2377C130.52 44.7097 131.396 44.4146 132.265 44.3524C133.137 44.2953 133.95 44.4686 134.703 44.8724C135.456 45.2761 136.095 45.9118 136.618 46.7796C137.068 47.5248 137.325 48.2569 137.39 48.976C137.457 49.7002 137.343 50.373 137.049 50.9943C136.754 51.6157 136.283 52.1413 135.635 52.571L134.286 50.3353C134.548 50.1225 134.747 49.8853 134.882 49.6237C135.017 49.362 135.077 49.0862 135.062 48.7961C135.048 48.506 134.953 48.2155 134.777 47.9245C134.555 47.557 134.261 47.2953 133.895 47.1394C133.537 46.9855 133.12 46.9471 132.643 47.0243C132.175 47.1034 131.669 47.3057 131.126 47.6311C130.583 47.9565 130.161 48.3098 129.861 48.6912C129.564 49.0776 129.395 49.4675 129.353 49.8608C129.315 50.2592 129.406 50.6422 129.628 51.0097C129.875 51.418 130.211 51.6858 130.636 51.8131C131.067 51.9373 131.531 51.8959 132.027 51.6891L133.376 53.9247C132.699 54.2819 132.014 54.4527 131.32 54.4371C130.632 54.4184 129.98 54.2153 129.362 53.8278C128.75 53.4372 128.212 52.8591 127.75 52.0934Z" fill="white"/>
<path d="M142.011 58.3088L140.07 59.1013L137.782 53.5372L139.724 52.7447L142.011 58.3088ZM142.451 53.1087L143.502 55.6634L134.871 59.1858C134.562 59.3122 134.36 59.4748 134.268 59.6736C134.18 59.8701 134.199 60.1199 134.324 60.423C134.365 60.5222 134.418 60.6291 134.485 60.7436C134.551 60.8581 134.614 60.9549 134.672 61.034L132.913 62.2249C132.715 61.9777 132.542 61.7297 132.394 61.4809C132.249 61.2377 132.124 60.9893 132.02 60.7357C131.641 59.8153 131.579 59.0106 131.832 58.3216C132.09 57.6303 132.64 57.1131 133.481 56.7699L142.451 53.1087Z" fill="white"/>
<path d="M149.01 75.1245L149.333 77.9203L140.719 78.9106C139.751 79.0218 138.875 78.8887 138.091 78.5111C137.313 78.1388 136.675 77.5646 136.176 76.7886C135.677 76.0125 135.364 75.0772 135.237 73.9825C135.111 72.8878 135.202 71.9061 135.51 71.0372C135.819 70.1683 136.309 69.4644 136.981 68.9255C137.658 68.3859 138.481 68.0605 139.449 67.9492L148.064 66.959L148.387 69.7459L140.004 70.7095C139.499 70.7675 139.061 70.9318 138.689 71.2024C138.323 71.4723 138.05 71.8214 137.871 72.2497C137.698 72.6774 137.643 73.1604 137.705 73.6988C137.768 74.2432 137.933 74.704 138.199 75.0811C138.471 75.4575 138.816 75.7326 139.233 75.9065C139.657 76.0856 140.122 76.1461 140.627 76.0881L149.01 75.1245Z" fill="white"/>
<path d="M142.296 91.2328L142.382 88.7013C142.704 88.6656 142.991 88.5161 143.244 88.2527C143.503 87.9899 143.655 87.6183 143.701 87.1379C143.741 86.711 143.686 86.3438 143.535 86.0365C143.383 85.7351 143.159 85.5704 142.861 85.5425C142.623 85.5201 142.409 85.5928 142.219 85.7604C142.034 85.9345 141.873 86.2454 141.734 86.6931L141.206 88.4653C140.919 89.4134 140.532 90.104 140.047 90.5371C139.561 90.9702 138.959 91.1529 138.238 91.0853C137.578 91.0233 137.018 90.7793 136.56 90.3534C136.108 89.9281 135.774 89.3702 135.557 88.6798C135.346 87.9899 135.281 87.2151 135.362 86.3552C135.487 85.0387 135.863 84.0151 136.49 83.2843C137.117 82.5594 137.91 82.1762 138.869 82.1345L138.757 84.8431C138.344 84.8941 138.018 85.0669 137.78 85.3617C137.542 85.6564 137.4 86.0499 137.353 86.5421C137.308 87.0224 137.366 87.4198 137.529 87.7342C137.69 88.0545 137.917 88.2283 138.209 88.2557C138.703 88.3021 139.076 87.9064 139.33 87.0687L139.849 85.3854C140.137 84.4373 140.542 83.7483 141.063 83.3186C141.584 82.8889 142.216 82.709 142.96 82.7788C143.603 82.8392 144.14 83.0661 144.571 83.4595C145.002 83.853 145.313 84.3757 145.504 85.0278C145.694 85.6857 145.749 86.4387 145.668 87.2867C145.549 88.5439 145.188 89.5061 144.585 90.1734C143.987 90.8471 143.224 91.2003 142.296 91.2328Z" fill="white"/>
<path d="M137.984 101.915L140.298 102.947L139.699 100.488L141.436 100.185L141.69 102.698L143.523 100.953L144.662 102.315L142.603 103.795L145.034 104.509L144.428 106.143L142.112 105.12L142.71 107.578L140.959 107.867L140.702 105.363L138.873 107.099L137.747 105.752L139.807 104.271L137.379 103.549L137.984 101.915Z" fill="white"/>
<path d="M124.064 114.924C124.778 113.984 125.633 113.303 126.629 112.881C127.624 112.459 128.694 112.339 129.837 112.522C130.981 112.705 132.129 113.231 133.282 114.101C134.445 114.979 135.27 115.941 135.757 116.988C136.245 118.043 136.417 119.103 136.275 120.169C136.134 121.243 135.71 122.245 135.002 123.176C134.533 123.793 134.01 124.299 133.433 124.693C132.861 125.091 132.255 125.365 131.614 125.517C130.975 125.678 130.317 125.705 129.641 125.598C128.97 125.495 128.299 125.247 127.63 124.854L129.352 122.589C129.675 122.766 130.002 122.878 130.333 122.926C130.66 122.979 130.983 122.964 131.3 122.882C131.614 122.805 131.913 122.668 132.197 122.472C132.482 122.283 132.742 122.035 132.977 121.726C133.388 121.185 133.613 120.604 133.65 119.982C133.689 119.369 133.535 118.752 133.189 118.132C132.844 117.521 132.299 116.934 131.556 116.374C130.798 115.802 130.073 115.434 129.38 115.27C128.692 115.11 128.062 115.135 127.489 115.346C126.917 115.556 126.426 115.93 126.019 116.466C125.791 116.766 125.621 117.074 125.507 117.391C125.393 117.709 125.337 118.025 125.337 118.34C125.338 118.654 125.398 118.96 125.516 119.259C125.636 119.566 125.82 119.85 126.07 120.114L124.349 122.379C123.901 121.952 123.539 121.451 123.263 120.877C122.984 120.307 122.815 119.69 122.757 119.027C122.704 118.366 122.778 117.686 122.98 116.987C123.186 116.291 123.547 115.603 124.064 114.924Z" fill="white"/>
<path d="M115.759 123.609C116.529 122.957 117.335 122.555 118.179 122.404C119.022 122.26 119.846 122.352 120.65 122.679C121.454 123.014 122.189 123.572 122.855 124.353C123.529 125.142 123.966 125.957 124.164 126.797C124.363 127.646 124.321 128.47 124.04 129.272C123.758 130.081 123.232 130.812 122.462 131.464C121.688 132.12 120.879 132.52 120.036 132.663C119.192 132.815 118.369 132.723 117.565 132.388C116.76 132.061 116.021 131.502 115.347 130.713C114.681 129.932 114.249 129.118 114.05 128.269C113.852 127.429 113.893 126.605 114.175 125.795C114.457 124.994 114.984 124.265 115.759 123.609ZM117.151 125.268C116.8 125.565 116.59 125.911 116.519 126.307C116.453 126.707 116.507 127.13 116.683 127.575C116.855 128.024 117.128 128.469 117.504 128.909C117.883 129.354 118.28 129.694 118.693 129.931C119.102 130.171 119.508 130.288 119.911 130.282C120.315 130.277 120.692 130.126 121.043 129.829C121.398 129.528 121.613 129.177 121.688 128.778C121.758 128.382 121.71 127.962 121.542 127.517C121.37 127.077 121.094 126.634 120.715 126.189C120.339 125.749 119.945 125.407 119.532 125.162C119.115 124.921 118.703 124.802 118.296 124.803C117.888 124.812 117.506 124.967 117.151 125.268Z" fill="white"/>
<path d="M111.078 134.285L108.252 129.247L110.671 127.9L115.562 136.619L113.182 137.945L112.312 136.393L112.226 136.44C112.316 137.066 112.228 137.647 111.961 138.185C111.694 138.722 111.235 139.173 110.582 139.536C109.977 139.873 109.375 140.034 108.778 140.019C108.175 140.006 107.611 139.825 107.087 139.476C106.562 139.127 106.109 138.612 105.727 137.931L102.616 132.386L105.035 131.039L107.905 136.155C108.202 136.685 108.574 137.024 109.02 137.172C109.468 137.324 109.935 137.266 110.421 136.995C110.744 136.815 110.99 136.582 111.159 136.297C111.331 136.018 111.413 135.706 111.405 135.362C111.397 135.019 111.288 134.66 111.078 134.285Z" fill="white"/>
<path d="M99.5021 144.114L98.7768 142.152L104.44 140.074L105.165 142.036L99.5021 144.114ZM104.702 144.738L102.102 145.692L98.8788 136.973C98.7631 136.66 98.6072 136.454 98.4112 136.354C98.2172 136.26 97.966 136.27 97.6574 136.383C97.5564 136.42 97.4473 136.47 97.3301 136.532C97.2129 136.594 97.1135 136.653 97.032 136.708L95.9007 134.914C96.1558 134.725 96.4108 134.562 96.6656 134.424C96.9148 134.288 97.1684 134.173 97.4265 134.078C98.3634 133.734 99.1728 133.701 99.8548 133.977C100.539 134.26 101.038 134.825 101.352 135.675L104.702 144.738Z" fill="white"/>
<path d="M91.779 135.625C92.4002 135.5 92.9817 135.496 93.5236 135.612C94.0607 135.735 94.5137 135.984 94.8824 136.36C95.2511 136.735 95.5005 137.244 95.6304 137.887C95.7414 138.435 95.734 138.911 95.6079 139.313C95.4831 139.721 95.2708 140.073 94.9711 140.37C94.6714 140.668 94.3136 140.919 93.8977 141.124C93.4818 141.329 93.0324 141.504 92.5496 141.65C91.9918 141.816 91.5453 141.961 91.2101 142.083C90.875 142.205 90.639 142.334 90.502 142.471C90.3603 142.615 90.3102 142.789 90.3515 142.993L90.3604 143.037C90.4419 143.44 90.634 143.727 90.9368 143.897C91.2337 144.068 91.6136 144.107 92.0766 144.014C92.563 143.916 92.9309 143.73 93.1802 143.455C93.4248 143.187 93.561 142.88 93.5886 142.535L96.1523 142.229C96.1438 142.851 95.9958 143.415 95.7081 143.923C95.4217 144.436 95.0061 144.869 94.4614 145.221C93.9121 145.581 93.2448 145.839 92.4595 145.997C91.9144 146.106 91.3799 146.147 90.8557 146.119C90.3316 146.09 89.849 145.98 89.4078 145.79C88.962 145.606 88.5823 145.326 88.2687 144.952C87.9551 144.577 87.7398 144.101 87.6228 143.523L86.2868 136.919L88.8801 136.399L89.1565 137.765L89.2268 137.751C89.3224 137.409 89.4785 137.096 89.695 136.809C89.9126 136.528 90.1925 136.284 90.5345 136.075C90.8777 135.873 91.2926 135.723 91.779 135.625ZM91.3758 137.656C90.9773 137.736 90.6416 137.886 90.3687 138.105C90.0912 138.331 89.8946 138.595 89.779 138.898C89.6587 139.207 89.6328 139.532 89.7014 139.87L89.9122 140.912C89.9836 140.843 90.0908 140.77 90.2337 140.693C90.3708 140.617 90.5266 140.543 90.7012 140.471C90.8758 140.4 91.051 140.331 91.2267 140.266C91.4037 140.206 91.5631 140.149 91.7048 140.097C92.0177 139.985 92.2837 139.853 92.5027 139.7C92.7229 139.552 92.8827 139.377 92.982 139.175C93.0767 138.98 93.098 138.754 93.0461 138.497C92.9716 138.129 92.7801 137.876 92.4716 137.737C92.163 137.599 91.7978 137.572 91.3758 137.656Z" fill="white"/>
<path d="M79.71 136.999C80.7322 136.985 81.614 137.19 82.3553 137.615C83.0967 138.045 83.67 138.642 84.0753 139.405C84.4806 140.174 84.6904 141.064 84.7045 142.077C84.7188 143.101 84.5341 144.003 84.1503 144.783C83.7606 145.563 83.2011 146.175 82.4719 146.62C81.7427 147.065 80.87 147.294 79.8538 147.308C78.981 147.32 78.2167 147.173 77.5607 146.867C76.8987 146.56 76.3725 146.124 75.9819 145.557C75.5913 144.991 75.3727 144.321 75.3261 143.547L77.9443 143.511C77.9968 143.843 78.1025 144.134 78.2614 144.382C78.4203 144.63 78.6293 144.82 78.8882 144.954C79.1472 145.087 79.447 145.152 79.7878 145.147C80.2182 145.141 80.5932 145.02 80.9127 144.783C81.2264 144.552 81.4698 144.212 81.6429 143.763C81.8101 143.32 81.8893 142.783 81.8805 142.151C81.8717 141.52 81.7774 140.979 81.5978 140.529C81.4121 140.079 81.1592 139.737 80.8391 139.503C80.5129 139.269 80.1347 139.155 79.7043 139.161C79.226 139.168 78.8246 139.323 78.5 139.625C78.1755 139.933 77.978 140.353 77.9077 140.884L75.2894 140.92C75.3206 140.157 75.5175 139.482 75.88 138.893C76.2425 138.31 76.7473 137.85 77.3943 137.514C78.0414 137.183 78.8133 137.011 79.71 136.999Z" fill="white"/>
<path d="M67.0993 146.155L67.3872 144.084L73.3653 144.909L73.0773 146.98L67.0993 146.155ZM71.3909 149.146L68.6462 148.768L69.926 139.564C69.972 139.233 69.932 138.978 69.8061 138.798C69.6794 138.625 69.4532 138.515 69.1275 138.47C69.0209 138.455 68.9012 138.448 68.7685 138.448C68.6357 138.447 68.5204 138.453 68.4223 138.463L68.2726 136.35C68.5869 136.303 68.8891 136.279 69.179 136.276C69.4631 136.274 69.7414 136.291 70.0138 136.329C71.0027 136.465 71.7326 136.815 72.2034 137.379C72.6733 137.949 72.846 138.683 72.7213 139.58L71.3909 149.146Z" fill="white"/>
<path d="M48.983 143.731L46.3944 142.605L49.8656 134.687C50.2557 133.798 50.8116 133.11 51.5333 132.625C52.2471 132.142 53.0661 131.881 53.9904 131.842C54.9146 131.802 55.8835 132.003 56.897 132.444C57.9105 132.885 58.7167 133.457 59.3155 134.159C59.9142 134.862 60.2786 135.638 60.4084 136.487C60.5359 137.342 60.4046 138.215 60.0145 139.104L56.5433 147.021L53.9629 145.898L57.3408 138.194C57.5443 137.73 57.622 137.27 57.5742 136.814C57.524 136.363 57.3581 135.953 57.0765 135.583C56.7925 135.219 56.4012 134.929 55.9027 134.712C55.3986 134.492 54.9161 134.402 54.455 134.442C53.9915 134.488 53.5795 134.646 53.2188 134.918C52.8503 135.193 52.5643 135.563 52.3609 136.027L48.983 143.731Z" fill="white"/>
<path d="M38.4715 129.892L40.6236 131.241C40.4927 131.536 40.4777 131.858 40.5787 132.209C40.6763 132.564 40.922 132.882 41.3157 133.163C41.6657 133.413 42.012 133.55 42.3545 133.575C42.6923 133.596 42.9482 133.485 43.1222 133.243C43.2614 133.049 43.3061 132.829 43.2564 132.581C43.1983 132.334 43.01 132.039 42.6914 131.694L41.4201 130.348C40.7426 129.623 40.3383 128.942 40.2069 128.306C40.0756 127.671 40.2206 127.06 40.6417 126.474C41.028 125.936 41.5212 125.577 42.1212 125.397C42.7177 125.222 43.3699 125.215 44.0779 125.376C44.7824 125.541 45.4871 125.876 46.1919 126.378C47.271 127.148 47.9695 127.987 48.2874 128.895C48.6005 129.8 48.5338 130.675 48.0873 131.522L45.7946 130.062C45.9583 129.681 45.9723 129.313 45.8365 128.96C45.7007 128.607 45.4311 128.286 45.0276 127.998C44.6339 127.717 44.2599 127.568 43.9054 127.549C43.5462 127.527 43.2812 127.635 43.1107 127.872C42.8218 128.274 42.9769 128.795 43.5759 129.435L44.7743 130.73C45.4517 131.455 45.8457 132.15 45.9561 132.814C46.0665 133.479 45.9042 134.114 45.4691 134.72C45.0932 135.243 44.6262 135.591 44.0679 135.764C43.5096 135.937 42.8998 135.942 42.2384 135.777C41.5721 135.61 40.8914 135.278 40.1963 134.782C39.1658 134.047 38.5131 133.252 38.2382 132.396C37.9549 131.542 38.0327 130.708 38.4715 129.892Z" fill="white"/>
<path d="M31.363 120.809L29.3067 122.285L31.7421 123.002L31.1343 124.652L28.825 123.611L29.4215 126.065L27.6673 126.364L27.4143 123.847L25.5754 125.584L24.46 124.243L26.5106 122.759L24.0751 122.043L24.7025 120.388L27.006 121.423L26.4153 118.975L28.1499 118.68L28.4029 121.198L30.2476 119.467L31.363 120.809Z" fill="white"/>
<path d="M27.0295 102.277C27.4879 103.364 27.6508 104.443 27.5182 105.512C27.3856 106.582 26.9533 107.564 26.2215 108.458C25.4896 109.352 24.4567 110.079 23.1229 110.637C21.7779 111.2 20.5289 111.428 19.3757 111.323C18.2146 111.215 17.2071 110.832 16.3531 110.175C15.4912 109.515 14.8334 108.647 14.3796 107.57C14.0786 106.856 13.9016 106.152 13.8486 105.457C13.7901 104.765 13.8553 104.104 14.0443 103.476C14.2256 102.844 14.532 102.264 14.9637 101.734C15.3899 101.207 15.9411 100.754 16.6174 100.374L17.7218 102.993C17.4064 103.183 17.1449 103.409 16.9373 103.67C16.7274 103.926 16.5785 104.211 16.4907 104.526C16.4005 104.835 16.3695 105.161 16.3976 105.505C16.4179 105.845 16.5033 106.194 16.6538 106.551C16.9177 107.177 17.3102 107.662 17.8313 108.006C18.3446 108.347 18.9572 108.523 19.6691 108.535C20.3732 108.544 21.1552 108.369 22.0151 108.009C22.8915 107.642 23.5745 107.202 24.0642 106.686C24.5483 106.174 24.8424 105.618 24.9465 105.019C25.0505 104.42 24.9718 103.81 24.7102 103.189C24.5643 102.843 24.382 102.542 24.1633 102.284C23.9446 102.027 23.6984 101.82 23.4248 101.663C23.1512 101.506 22.8552 101.404 22.5368 101.356C22.2106 101.305 21.8706 101.322 21.5167 101.405L20.4124 98.7857C21.0079 98.614 21.6242 98.5532 22.2613 98.6031C22.896 98.6476 23.5162 98.8113 24.1217 99.0941C24.7218 99.3792 25.275 99.784 25.7815 100.309C26.2824 100.835 26.6984 101.491 27.0295 102.277Z" fill="white"/>
<path d="M23.6636 90.7632C23.8415 91.7541 23.7837 92.6508 23.4905 93.4533C23.1903 94.251 22.6959 94.9139 22.0072 95.442C21.3116 95.9653 20.4577 96.3171 19.4454 96.4974C18.4214 96.6798 17.4951 96.6451 16.6665 96.3934C15.8309 96.1368 15.1366 95.6857 14.5835 95.0399C14.0234 94.3894 13.6544 93.5687 13.4766 92.5778C13.2977 91.581 13.3584 90.6838 13.6586 89.8861C13.9518 89.0835 14.4463 88.4206 15.1419 87.8974C15.8305 87.3693 16.6869 87.0141 17.7109 86.8317C18.7231 86.6513 19.647 86.6895 20.4826 86.946C21.3112 87.1978 22.0055 87.6489 22.5656 88.2995C23.1188 88.9452 23.4848 89.7664 23.6636 90.7632ZM21.5242 91.1261C21.4432 90.6746 21.2488 90.319 20.941 90.0592C20.6274 89.8004 20.2332 89.6346 19.7586 89.5619C19.2829 89.4832 18.7597 89.4947 18.1888 89.5964C17.6121 89.6992 17.1172 89.869 16.7043 90.1059C16.2902 90.337 15.984 90.6275 15.7857 90.9775C15.5874 91.3275 15.5287 91.7282 15.6097 92.1797C15.6918 92.637 15.8872 92.9985 16.1961 93.2642C16.5038 93.524 16.8926 93.6938 17.3624 93.7735C17.8311 93.8473 18.3539 93.8328 18.9306 93.7301C19.5015 93.6284 19.9968 93.4615 20.4167 93.2294C20.8356 92.9914 21.1471 92.6969 21.3514 92.3459C21.5487 91.99 21.6063 91.5835 21.5242 91.1261Z" fill="white"/>
<path d="M16.766 81.3075L22.5581 81.4107L22.5086 84.171L12.4844 83.9925L12.5332 81.2768L14.3174 81.3086L14.3192 81.2103C13.7315 80.9735 13.2717 80.6049 12.9399 80.1045C12.608 79.6042 12.4488 78.9818 12.4621 78.2374C12.4745 77.5465 12.6378 76.9478 12.9518 76.441C13.2659 75.9283 13.7065 75.5341 14.2735 75.2582C14.8405 74.9824 15.5156 74.8514 16.2986 74.8654L22.6735 74.9789L22.624 77.7392L16.7422 77.6345C16.1325 77.6236 15.6515 77.7729 15.2991 78.0824C14.9408 78.3917 14.7567 78.8233 14.7467 79.3772C14.7401 79.7464 14.8179 80.0754 14.9801 80.3643C15.1364 80.653 15.3655 80.8805 15.6675 81.0467C15.9694 81.2129 16.3356 81.2999 16.766 81.3075Z" fill="white"/>
<path d="M14.0571 66.3952L16.1241 66.7558L15.0833 72.6786L13.0163 72.3181L14.0571 66.3952ZM10.9033 70.5617L11.3812 67.8423L20.5677 69.4447C20.8975 69.5023 21.1547 69.4716 21.3395 69.3526C21.5184 69.2326 21.6362 69.0113 21.6929 68.6886C21.7115 68.583 21.7232 68.4641 21.7283 68.332C21.7333 68.1998 21.7323 68.0847 21.7252 67.9868L23.8503 67.913C23.886 68.2276 23.8998 68.5293 23.8915 68.8182C23.8843 69.1011 23.8569 69.3775 23.8095 69.6474C23.6373 70.6272 23.26 71.3414 22.6774 71.7901C22.0889 72.2377 21.3471 72.3834 20.452 72.2273L10.9033 70.5617Z" fill="white"/>
<path d="M25.2979 64.0208C25.0943 64.6187 24.8062 65.122 24.4336 65.5307C24.0571 65.9318 23.6134 66.197 23.1022 66.3262C22.5911 66.4554 22.0242 66.4148 21.4014 66.2044C20.8692 66.0246 20.4602 65.7795 20.1745 65.4691C19.8831 65.1568 19.6836 64.797 19.5761 64.3895C19.4685 63.9821 19.4302 63.5478 19.4609 63.0865C19.4917 62.6251 19.5651 62.1499 19.681 61.6608C19.8163 61.0964 19.9151 60.6392 19.9774 60.2892C20.0398 59.9392 20.0459 59.6708 19.9958 59.4841C19.942 59.2898 19.816 59.1592 19.6179 59.0922L19.5754 59.0779C19.1847 58.9459 18.8396 58.9676 18.54 59.1431C18.2423 59.313 18.0176 59.6207 17.8659 60.0664C17.7066 60.5346 17.6836 60.9451 17.7971 61.2979C17.9068 61.6431 18.1049 61.9144 18.3912 62.1118L17.3693 64.4742C16.8341 64.155 16.4184 63.7441 16.1223 63.2415C15.8206 62.7371 15.6534 62.1617 15.6209 61.5155C15.5846 60.8617 15.6951 60.1568 15.9524 59.401C16.1309 58.8764 16.3641 58.3954 16.6518 57.958C16.9396 57.5206 17.277 57.1598 17.6642 56.8755C18.0476 56.5836 18.4806 56.3966 18.9631 56.3143C19.4456 56.232 19.9671 56.2856 20.5276 56.475L26.931 58.6384L26.0814 61.1345L24.7566 60.6869L24.7335 60.7546C24.9818 61.0083 25.1759 61.3003 25.316 61.6306C25.4504 61.9591 25.5222 62.323 25.5315 62.7223C25.5351 63.1198 25.4572 63.5526 25.2979 64.0208ZM23.7368 62.6537C23.8673 62.2701 23.9061 61.9059 23.8531 61.5609C23.7963 61.2084 23.6655 60.9063 23.4608 60.6547C23.2523 60.3956 22.9838 60.2106 22.6555 60.0996L21.6448 59.7582C21.6689 59.8544 21.6786 59.9834 21.674 60.1454C21.6713 60.3017 21.6572 60.4731 21.6316 60.6594C21.6061 60.8457 21.5777 61.0311 21.5465 61.2156C21.5096 61.3981 21.4785 61.5637 21.4532 61.7123C21.3929 62.0379 21.3743 62.3335 21.3975 62.5992C21.415 62.863 21.4866 63.0885 21.6123 63.2756C21.7343 63.4552 21.9198 63.587 22.1689 63.6712C22.5256 63.7917 22.8415 63.7538 23.1167 63.5574C23.3918 63.3611 23.5985 63.0598 23.7368 62.6537Z" fill="white"/>
<path d="M30.1708 52.9348C29.6685 53.8219 29.0466 54.4777 28.3052 54.9021C27.5585 55.3236 26.7524 55.5168 25.8869 55.4816C25.0161 55.4435 24.1381 55.1757 23.253 54.6781C22.3574 54.1747 21.6681 53.5616 21.1851 52.8387C20.705 52.1107 20.4556 51.3208 20.4368 50.469C20.418 49.6173 20.6583 48.7505 21.1577 47.8686C21.5866 47.1112 22.0991 46.5273 22.6953 46.117C23.2944 45.7015 23.9379 45.4682 24.6258 45.4171C25.3136 45.3661 26.0048 45.5153 26.6993 45.8646L25.4127 48.1368C25.0976 48.0144 24.7925 47.9592 24.4974 47.9711C24.2024 47.9831 23.9318 48.067 23.6857 48.2227C23.4396 48.3785 23.2329 48.6042 23.0654 48.8999C22.8539 49.2734 22.7704 49.6573 22.8148 50.0516C22.857 50.4377 23.0293 50.8184 23.3317 51.1935C23.6318 51.5605 24.0578 51.8992 24.6097 52.2094C25.1617 52.5196 25.6781 52.7108 26.159 52.7827C26.6429 52.8495 27.0668 52.804 27.4307 52.6461C27.7976 52.4831 28.0868 52.2148 28.2983 51.8413C28.5334 51.4263 28.6015 51.0029 28.5027 50.5713C28.3987 50.1367 28.1341 49.7554 27.7089 49.4275L28.9956 47.1553C29.6415 47.5663 30.1285 48.076 30.4566 48.6844C30.7796 49.2899 30.9241 49.9559 30.8903 50.6823C30.8513 51.4058 30.6115 52.1567 30.1708 52.9348Z" fill="white"/>
<path d="M28.5425 37.5272L30.1935 38.8176L26.4683 43.5484L24.8173 42.2579L28.5425 37.5272ZM23.7875 39.7155L25.4979 37.5434L32.8355 43.2788C33.0989 43.4847 33.3402 43.5787 33.5595 43.5608C33.774 43.5392 33.9828 43.3995 34.1857 43.1418C34.2522 43.0574 34.3189 42.9582 34.386 42.8441C34.4531 42.7299 34.5067 42.628 34.5469 42.5384L36.455 43.4733C36.3374 43.7675 36.2064 44.0399 36.0622 44.2906C35.9217 44.5366 35.7666 44.7673 35.5969 44.9829C34.9806 45.7655 34.3094 46.2175 33.5832 46.3388C32.8523 46.4564 32.1294 46.2358 31.4144 45.677L23.7875 39.7155Z" fill="white"/>
<path d="M39.7358 23.1366L42.0116 21.4694L47.1486 28.4299C47.7259 29.2121 48.0445 30.0359 48.1044 30.9014C48.1656 31.7585 47.9819 32.5954 47.5532 33.4122C47.1245 34.229 46.4647 34.9637 45.5736 35.6165C44.6826 36.2693 43.7819 36.6777 42.8716 36.8419C41.9613 37.006 41.1046 36.9312 40.3017 36.6175C39.4952 36.2989 38.8033 35.7486 38.2261 34.9664L33.0891 28.0059L35.3576 26.3439L40.3565 33.1173C40.6575 33.5252 41.0182 33.8229 41.4385 34.0103C41.8553 34.1929 42.2947 34.2555 42.7568 34.1979C43.2154 34.1355 43.6638 33.9437 44.1021 33.6227C44.5452 33.298 44.865 32.927 45.0615 32.5095C45.2545 32.0872 45.3232 31.6524 45.2676 31.2052C45.2134 30.7496 45.0357 30.3178 44.7347 29.9099L39.7358 23.1366Z" fill="white"/>
<path d="M57.0179 21.0076L54.7683 22.1877C54.5778 21.927 54.305 21.7525 53.95 21.664C53.5924 21.5701 53.193 21.6226 52.7518 21.8213C52.3596 21.998 52.0669 22.2279 51.8739 22.511C51.6863 22.7916 51.6541 23.0675 51.7772 23.3389C51.8758 23.556 52.0452 23.7052 52.2855 23.7865C52.5288 23.86 52.8798 23.8457 53.3387 23.7435L55.1452 23.322C56.1144 23.1011 56.9081 23.0933 57.5261 23.2986C58.1442 23.504 58.6022 23.935 58.9002 24.5917C59.1736 25.1941 59.2382 25.7991 59.094 26.4066C58.9473 27.0087 58.6268 27.5747 58.1325 28.1046C57.6356 28.6291 56.9923 29.0693 56.2024 29.4251C54.9931 29.9698 53.9143 30.1518 52.9662 29.971C52.0235 29.7877 51.2965 29.2915 50.785 28.4826L53.2018 27.237C53.451 27.5693 53.763 27.7654 54.1379 27.8253C54.5129 27.8852 54.9264 27.8133 55.3785 27.6096C55.8198 27.4109 56.1372 27.1633 56.3307 26.8669C56.5297 26.5681 56.5689 26.2857 56.4482 26.0198C56.2438 25.5693 55.7137 25.4421 54.8578 25.638L53.133 26.0228C52.1638 26.2437 51.3627 26.2351 50.7299 25.9973C50.0971 25.7594 49.6267 25.3012 49.3188 24.6228C49.0528 24.0367 48.9845 23.4595 49.1138 22.8914C49.2431 22.3233 49.5447 21.7952 50.0187 21.3072C50.4981 20.8167 51.1273 20.3959 51.9063 20.045C53.0612 19.5248 54.079 19.3605 54.9598 19.552C55.8436 19.7357 56.5297 20.2209 57.0179 21.0076Z" fill="white"/>
<path d="M68.4839 19.4444L68.2389 16.931L66.3913 18.6666L65.2664 17.3127L67.3319 15.849L64.9031 15.1267L65.5271 13.4661L67.8376 14.5158L67.2564 12.0579L68.9816 11.7733L69.2354 14.2853L71.0831 12.5496L72.202 13.9227L70.1453 15.3849L72.5653 16.1087L71.9473 17.7502L69.6368 16.7004L70.2091 19.1598L68.4839 19.4444Z" fill="white"/>
<circle cx="80" cy="80" r="25" fill="#9C9C55"/>
<mask id="mask0_442_5070" style="mask-type:alpha" maskUnits="userSpaceOnUse" x="55" y="55" width="50" height="50">
<circle cx="80" cy="80" r="25" fill="#9C9C55"/>
</mask>
<g mask="url(#mask0_442_5070)">
<path d="M85.6468 65L66 77.7693V109H94V93.7107L93.262 93.2305L85.6474 88.2818V65H85.6468ZM82.411 70.9695V86.1787L74.3526 80.9419V105.757H69.237V79.5316L82.411 70.9701V70.9695ZM77.5885 86.9103L82.4104 90.0446V105.757H77.5885V86.9103ZM85.6468 92.1476L90.763 95.4729V105.756H85.6468V92.1476Z" fill="white"/>
</g>
</svg>
