<svg width="60" height="60" viewBox="0 0 60 60" fill="none" xmlns="http://www.w3.org/2000/svg">
<path d="M60 30C60 26.1764 56.8968 23.0732 53.0732 23.0732H46.7213L51.2168 18.5777C53.9252 15.8693 53.9252 11.4846 51.2168 8.78319C48.5084 6.08174 44.1238 6.07481 41.4223 8.78319L36.9268 13.2787V6.92681C36.9268 3.10321 33.8236 0 30 0C26.1764 0 23.0732 3.10321 23.0732 6.92681V13.2787L18.5777 8.78319C15.8693 6.07481 11.4846 6.07481 8.78319 8.78319C6.08174 11.4916 6.07481 15.8762 8.78319 18.5777L13.2787 23.0732H6.92681C3.10321 23.0732 0 26.1764 0 30C0 33.8236 3.10321 36.9268 6.92681 36.9268H13.2787L8.78319 41.4223C6.07481 44.1307 6.07481 48.5154 8.78319 51.2168C11.4916 53.9252 15.8762 53.9252 18.5777 51.2168L23.0732 46.7213V53.0732C23.0732 56.8968 26.1764 60 30 60C33.8236 60 36.9268 56.8968 36.9268 53.0732V46.7213L41.4223 51.2168C44.1307 53.9252 48.5154 53.9252 51.2168 51.2168C53.9252 48.5084 53.9252 44.1238 51.2168 41.4223L46.7213 36.9268H53.0732C56.8968 36.9268 60 33.8236 60 30Z" fill="#D9D9D9"/>
</svg>
