<svg width="24" height="24" viewBox="0 0 24 24" fill="none" xmlns="http://www.w3.org/2000/svg">
<g clip-path="url(#clip0_332_3723)">
<path d="M11.9998 9.42861C18.1538 9.42861 23.1426 7.50983 23.1426 5.14289C23.1426 2.77596 18.1538 0.857178 11.9998 0.857178C5.84576 0.857178 0.856934 2.77596 0.856934 5.14289C0.856934 7.50983 5.84576 9.42861 11.9998 9.42861Z" stroke="white" stroke-width="1.5" stroke-linecap="round" stroke-linejoin="round"/>
<path d="M0.856934 5.14294V18.8572C0.856934 21.2229 5.84551 23.1429 11.9998 23.1429C18.1541 23.1429 23.1426 21.2229 23.1426 18.8572V5.14294" stroke="white" stroke-width="1.5" stroke-linecap="round" stroke-linejoin="round"/>
<path d="M23.1426 12C23.1426 14.3657 18.1541 16.2857 11.9998 16.2857C5.84551 16.2857 0.856934 14.3657 0.856934 12" stroke="white" stroke-width="1.5" stroke-linecap="round" stroke-linejoin="round"/>
</g>
<defs>
<clipPath id="clip0_332_3723">
<rect width="24" height="24" fill="white"/>
</clipPath>
</defs>
</svg>
