<svg width="24" height="24" viewBox="0 0 24 24" fill="none" xmlns="http://www.w3.org/2000/svg">
<g clip-path="url(#clip0_446_12061)">
<path d="M15.1029 20.6917C14.3284 21.4661 13.4091 22.0804 12.3972 22.4996C11.3854 22.9187 10.3009 23.1344 9.20571 23.1344C6.99385 23.1344 4.87259 22.2557 3.30857 20.6917C1.74455 19.1277 0.865891 17.0064 0.865891 14.7946C0.865891 12.5827 1.74455 10.4614 3.30857 8.89742L11.3486 0.857422L15.1029 4.61171L7.73142 12.0003C7.25759 12.5829 7.01662 13.3205 7.05512 14.0704C7.09362 14.8204 7.40885 15.5294 7.93985 16.0604C8.47085 16.5914 9.17989 16.9067 9.92985 16.9452C10.6798 16.9837 11.4174 16.7427 12 16.2689L19.3714 8.89742L23.1429 12.6517L15.1029 20.6917Z" stroke="white" stroke-width="1.5" stroke-linecap="round" stroke-linejoin="round"/>
<path d="M15.7543 12.5312L19.5086 16.2855" stroke="white" stroke-width="1.5" stroke-linecap="round" stroke-linejoin="round"/>
<path d="M7.71404 4.49219L11.4683 8.24647" stroke="white" stroke-width="1.5" stroke-linecap="round" stroke-linejoin="round"/>
</g>
<defs>
<clipPath id="clip0_446_12061">
<rect width="24" height="24" fill="white"/>
</clipPath>
</defs>
</svg>
