<svg width="24" height="24" viewBox="0 0 24 24" fill="none" xmlns="http://www.w3.org/2000/svg">
<g clip-path="url(#clip0_253_18646)">
<path d="M14.5713 16.2857C15.0259 16.2857 15.462 16.1051 15.7835 15.7836C16.105 15.4621 16.2856 15.0261 16.2856 14.5714" stroke="white" stroke-width="1.5" stroke-linecap="round" stroke-linejoin="round"/>
<path d="M7.71484 16.2857H10.2863" stroke="white" stroke-width="1.5" stroke-linecap="round" stroke-linejoin="round"/>
<path d="M16.286 7.71429V10.2857" stroke="white" stroke-width="1.5" stroke-linecap="round" stroke-linejoin="round"/>
<path d="M9.42913 7.71429C8.97447 7.71429 8.53844 7.89491 8.21695 8.2164C7.89546 8.53789 7.71484 8.97392 7.71484 9.42858" stroke="white" stroke-width="1.5" stroke-linecap="round" stroke-linejoin="round"/>
<path d="M0.857422 2.57143C0.857422 2.11678 1.03803 1.68074 1.35952 1.35925C1.68102 1.03776 2.11705 0.857147 2.57171 0.857147H14.5717C15.0264 0.857147 15.4624 1.03776 15.7839 1.35925C16.1054 1.68074 16.286 2.11678 16.286 2.57143V7.71429H21.4289C21.8835 7.71429 22.3195 7.8949 22.641 8.21639C22.9625 8.53788 23.1431 8.97392 23.1431 9.42858V21.4286C23.1431 21.8832 22.9625 22.3193 22.641 22.6408C22.3195 22.9622 21.8835 23.1429 21.4289 23.1429H9.42885C8.97419 23.1429 8.53816 22.9622 8.21667 22.6408C7.89518 22.3193 7.71456 21.8832 7.71456 21.4286V16.2857H2.57171C2.11705 16.2857 1.68102 16.1051 1.35952 15.7836C1.03803 15.4621 0.857422 15.0261 0.857422 14.5714V2.57143Z" stroke="white" stroke-width="1.5" stroke-linecap="round" stroke-linejoin="round"/>
<path d="M13.7148 7.71429H16.2863" stroke="white" stroke-width="1.5" stroke-linecap="round" stroke-linejoin="round"/>
<path d="M7.71484 13.7143V16.2857" stroke="white" stroke-width="1.5" stroke-linecap="round" stroke-linejoin="round"/>
</g>
<defs>
<clipPath id="clip0_253_18646">
<rect width="24" height="24" fill="white"/>
</clipPath>
</defs>
</svg>
