<svg width="24" height="24" viewBox="0 0 24 24" fill="none" xmlns="http://www.w3.org/2000/svg">
<path d="M9.63155 0.0218457C9.83471 0.123415 9.93381 0.229975 10.0298 0.442171C10.0417 0.573302 10.0466 0.693635 10.0449 0.824516C10.0449 0.862967 10.0449 0.901418 10.0449 0.941034C10.0448 1.06501 10.0438 1.18895 10.0428 1.31292C10.0426 1.38966 10.0424 1.46639 10.0424 1.54312C10.0417 1.82706 10.0398 2.111 10.0381 2.39493C10.0354 3.02971 10.0326 3.66449 10.0298 4.3185C11.344 4.3185 12.6583 4.3185 14.0123 4.3185C14.0053 3.05541 14.0053 3.05541 13.9964 1.79233C13.9956 1.54754 13.9956 1.54754 13.9954 1.43279C13.9951 1.35298 13.9945 1.27317 13.9936 1.19336C13.9923 1.07217 13.9922 0.95102 13.9922 0.829818C13.9916 0.794511 13.9909 0.759205 13.9903 0.722828C13.9921 0.482286 14.0459 0.347294 14.1893 0.161954C14.4204 -0.0274866 14.6607 -0.0143011 14.9416 0.0218457C15.1447 0.123415 15.2438 0.229975 15.3398 0.442171C15.3518 0.573287 15.3566 0.693648 15.3549 0.824516C15.3549 0.862358 15.3549 0.9002 15.3549 0.939189C15.3549 1.06378 15.3538 1.18834 15.3528 1.31292C15.3525 1.3995 15.3523 1.48607 15.3522 1.57265C15.3517 1.80015 15.3504 2.02763 15.3489 2.25513C15.3476 2.48741 15.347 2.7197 15.3463 2.95199C15.3449 3.4075 15.3426 3.863 15.3398 4.3185C15.4012 4.31607 15.4012 4.31607 15.4637 4.31358C15.6494 4.32004 15.7287 4.38195 15.8708 4.50532C16.0071 4.69469 16.0221 4.85639 16.0186 5.08688C16.0187 5.12108 16.0187 5.15527 16.0187 5.19051C16.0186 5.30297 16.0176 5.4154 16.0165 5.52785C16.0163 5.60605 16.0161 5.68425 16.016 5.76245C16.0155 5.96783 16.0142 6.17321 16.0127 6.37859C16.0113 6.58834 16.0107 6.79809 16.01 7.00784C16.0086 7.41908 16.0064 7.83031 16.0036 8.24154C16.0376 8.25538 16.0716 8.26923 16.1067 8.28349C17.5785 8.92444 18.7969 10.7268 19.3981 12.2218C19.8115 13.2876 20.0049 14.3639 19.9999 15.5126C19.9998 15.5519 19.9997 15.5911 19.9996 15.6316C19.9974 16.1987 19.9851 16.7493 19.8533 17.3019C19.8445 17.34 19.8357 17.3781 19.8267 17.4173C19.2952 19.6668 18.0194 21.5874 16.1278 22.7929C15.3689 23.2612 14.555 23.5744 13.7026 23.7936C13.671 23.802 13.6395 23.8103 13.607 23.819C12.6102 24.0711 11.3324 24.0573 10.3396 23.7936C10.2854 23.7797 10.2854 23.7797 10.2302 23.7655C8.09881 23.2046 6.27907 21.858 5.13688 19.8616C4.69323 19.0606 4.39643 18.2016 4.18879 17.3019C4.17688 17.252 4.17688 17.252 4.16474 17.201C3.90319 16.0491 3.9733 14.6604 4.23304 13.519C4.24085 13.4835 4.24867 13.4481 4.25672 13.4116C4.74407 11.2731 6.12075 9.47032 7.85221 8.29809C7.95005 8.24154 7.95005 8.24154 8.03855 8.24154C8.03815 8.19828 8.03776 8.15502 8.03736 8.11045C8.03381 7.70229 8.03111 7.29414 8.02938 6.88597C8.02845 6.67613 8.0272 6.46631 8.02519 6.25649C8.02327 6.0539 8.02221 5.85133 8.02175 5.64874C8.02143 5.57154 8.02079 5.49434 8.01983 5.41714C8.01854 5.30881 8.01837 5.20052 8.01845 5.09218C8.01806 5.03058 8.01767 4.96897 8.01726 4.9055C8.04781 4.66627 8.14254 4.51945 8.32064 4.37104C8.456 4.30982 8.55647 4.31469 8.7023 4.3185C8.70191 4.27056 8.70151 4.22262 8.70111 4.17323C8.69752 3.72109 8.69487 3.26895 8.69313 2.81679C8.69221 2.58434 8.69095 2.3519 8.68895 2.11946C8.68702 1.89507 8.68596 1.6707 8.68551 1.4463C8.68518 1.36076 8.68454 1.27522 8.68358 1.18968C8.6823 1.06971 8.68212 0.949793 8.68221 0.829818C8.68157 0.794579 8.68093 0.75934 8.68028 0.723033C8.68205 0.482409 8.73585 0.347368 8.8793 0.161954C9.1104 -0.0274866 9.35071 -0.0143011 9.63155 0.0218457ZM9.36605 5.71959C9.36605 6.33607 9.36605 6.95254 9.36605 7.5877C9.50934 7.54435 9.65263 7.50101 9.80026 7.45635C11.0342 7.10152 12.4472 6.97845 13.7026 7.30748C13.7398 7.31724 13.777 7.32699 13.8154 7.33704C14.003 7.38709 14.1897 7.43952 14.376 7.49484C14.5359 7.5469 14.5359 7.5469 14.6761 7.541C14.6761 6.93993 14.6761 6.33887 14.6761 5.71959C12.9238 5.71959 11.1715 5.71959 9.36605 5.71959ZM7.24205 10.6701C6.04621 11.9536 5.41806 13.7159 5.41673 15.498C5.4167 15.5338 5.41667 15.5695 5.41664 15.6064C5.41733 16.1233 5.4342 16.6129 5.56054 17.1151C5.5679 17.1464 5.57526 17.1778 5.58284 17.2101C6.0095 19.0155 7.11418 20.5467 8.60602 21.525C10.1506 22.4987 11.9735 22.7576 13.7119 22.2978C14.992 21.9379 16.2283 21.1497 17.0656 20.0574C17.0997 20.0132 17.1338 19.9691 17.1689 19.9236C17.7416 19.1689 18.1544 18.3333 18.4097 17.404C18.4255 17.3464 18.4255 17.3464 18.4417 17.2876C18.592 16.7084 18.631 16.1363 18.6282 15.5389C18.6281 15.5038 18.628 15.4687 18.6279 15.4326C18.6259 14.9215 18.6065 14.4358 18.4816 13.9393C18.4742 13.9079 18.4669 13.8766 18.4593 13.8443C18.0326 12.0389 16.9279 10.5077 15.4361 9.52933C12.7648 7.8454 9.42819 8.394 7.24205 10.6701Z" fill="white"/>
<path d="M11.9981 11.0026C12.0413 11.0018 12.0844 11.0009 12.1288 11C12.3249 11.0334 12.4596 11.1201 12.578 11.2843C12.639 11.3857 12.6965 11.4887 12.7533 11.5927C13.2415 12.5578 13.2415 12.5578 14.0444 13.1793C14.2134 13.2166 14.38 13.2425 14.5521 13.2577C14.7681 13.2829 14.9717 13.3511 15.1794 13.4158C15.2164 13.4261 15.2535 13.4363 15.2917 13.4469C15.5471 13.5195 15.756 13.6035 15.9222 13.8303C16.0165 14.0492 16.0142 14.2535 15.9726 14.4874C15.8962 14.6463 15.797 14.7763 15.686 14.9108C15.5955 15.021 15.5087 15.1343 15.4212 15.2472C15.3752 15.3064 15.3289 15.3654 15.2823 15.4241C15.236 15.4826 15.1903 15.5415 15.1451 15.601C15.0863 15.6764 15.0247 15.7496 14.9619 15.8215C14.7091 16.1295 14.6358 16.3379 14.6587 16.7426C14.664 16.8012 14.6693 16.8598 14.6748 16.9202C14.6787 16.9819 14.6824 17.0437 14.6859 17.1054C14.6928 17.2271 14.7007 17.3486 14.7094 17.4701C14.7243 17.691 14.7317 17.9111 14.7341 18.1324C14.736 18.1815 14.736 18.1815 14.7379 18.2316C14.7409 18.4773 14.6804 18.6113 14.548 18.8075C14.4662 18.8776 14.4662 18.8776 14.3834 18.9171C14.3564 18.931 14.3294 18.9449 14.3016 18.9592C14.0251 19.0382 13.7956 18.964 13.5385 18.8626C13.5049 18.8499 13.4714 18.8371 13.4368 18.8239C13.3303 18.7833 13.2241 18.7419 13.1179 18.7006C13.0462 18.6731 12.9746 18.6457 12.9029 18.6183C12.7714 18.5679 12.6399 18.5174 12.5086 18.4664C12.4801 18.4555 12.4516 18.4446 12.4222 18.4334C12.3462 18.4024 12.3462 18.4024 12.2407 18.3461C11.9499 18.2574 11.6495 18.3781 11.3779 18.4882C11.3452 18.501 11.3125 18.5139 11.2788 18.5271C11.1758 18.5676 11.0729 18.6087 10.9701 18.6499C10.9002 18.6776 10.8303 18.7052 10.7603 18.7327C10.6328 18.783 10.5054 18.8336 10.378 18.8844C10.1338 18.9807 9.91188 19.0546 9.66112 18.9467C9.46012 18.8261 9.36681 18.7232 9.28101 18.4924C9.27039 18.3693 9.26695 18.2579 9.27021 18.1353C9.27034 18.0994 9.27047 18.0636 9.2706 18.0268C9.27295 17.781 9.28808 17.5381 9.30782 17.2932C9.39102 16.5921 9.39102 16.5921 9.18144 15.9528C9.09843 15.8553 9.01101 15.766 8.91757 15.6794C8.79802 15.5621 8.70271 15.425 8.60375 15.289C8.5647 15.2363 8.52558 15.1838 8.48637 15.1313C8.46768 15.1062 8.44898 15.081 8.42971 15.0551C8.37722 14.9861 8.32257 14.9189 8.26782 14.8518C8.06701 14.5949 7.9785 14.4066 8.0044 14.0704C8.04366 13.8742 8.09657 13.7606 8.24488 13.6324C8.51425 13.4976 8.81069 13.4241 9.09854 13.3443C9.1321 13.3349 9.16567 13.3256 9.20025 13.316C9.33997 13.2775 9.47972 13.2391 9.61974 13.2017C9.72321 13.174 9.8264 13.1453 9.92959 13.1164C9.96099 13.1083 9.99238 13.1002 10.0247 13.0918C10.3874 12.9887 10.538 12.7171 10.73 12.4057C10.7755 12.3333 10.821 12.2608 10.8666 12.1883C10.9375 12.0747 11.0083 11.9611 11.0788 11.8473C11.1474 11.7369 11.2166 11.6269 11.2858 11.517C11.3067 11.4829 11.3275 11.4489 11.349 11.4138C11.5227 11.1391 11.669 11.0031 11.9981 11.0026ZM11.9577 13.0024C11.8844 13.1029 11.8844 13.1029 11.8087 13.2323C11.7792 13.2802 11.7497 13.3281 11.7193 13.3775C11.6573 13.4789 11.596 13.5807 11.5348 13.6826C11.2137 14.2014 10.9488 14.2816 10.3846 14.4311C10.3324 14.4453 10.2802 14.4596 10.2265 14.4742C10.0985 14.509 9.97042 14.5434 9.84224 14.5774C9.9155 14.708 9.98924 14.832 10.0807 14.9495C10.1007 14.9756 10.1208 15.0017 10.1414 15.0285C10.1826 15.0817 10.2239 15.1347 10.2652 15.1878C10.3063 15.2413 10.3467 15.2955 10.3864 15.3502C10.4257 15.4038 10.4667 15.4561 10.5095 15.5067C10.734 15.8069 10.686 16.1746 10.676 16.5349C10.6749 16.6026 10.6739 16.6704 10.673 16.7381C10.6707 16.9029 10.667 17.0677 10.6625 17.2324C10.8181 17.2087 10.957 17.1801 11.1016 17.1157C11.1339 17.1018 11.1662 17.088 11.1995 17.0737C11.2654 17.0448 11.3313 17.0156 11.3971 16.9862C11.8261 16.8031 12.1448 16.8 12.5756 16.9765C12.613 16.991 12.6504 17.0054 12.689 17.0203C12.8338 17.0767 12.9773 17.1352 13.1198 17.1978C13.2139 17.2402 13.2139 17.2402 13.3392 17.2324C13.3378 17.1909 13.3364 17.1494 13.335 17.1067C13.3306 16.9509 13.3274 16.7952 13.3249 16.6394C13.3236 16.5723 13.3219 16.5053 13.3196 16.4382C13.3058 16.018 13.3171 15.7147 13.5982 15.3874C13.6404 15.3306 13.6825 15.2735 13.7243 15.2164C13.7649 15.1636 13.8056 15.1109 13.8464 15.0583C13.9662 14.9042 14.0779 14.7576 14.1594 14.5774C14.1242 14.5674 14.0889 14.5575 14.0526 14.5472C13.9207 14.5097 13.7889 14.4717 13.6572 14.4335C13.6004 14.4171 13.5435 14.4008 13.4866 14.3848C13.4044 14.3615 13.3224 14.3376 13.2403 14.3137C13.191 14.2996 13.1418 14.2854 13.091 14.2709C12.8287 14.1709 12.674 14.0395 12.5277 13.7934C12.4997 13.7473 12.4717 13.7012 12.4428 13.6536C12.4145 13.6058 12.3862 13.5579 12.357 13.5086C12.2999 13.413 12.2426 13.3176 12.185 13.2224C12.1474 13.1591 12.1474 13.1591 12.1091 13.0945C12.0769 13.0489 12.0769 13.0489 12.044 13.0024C12.0155 13.0024 11.987 13.0024 11.9577 13.0024Z" fill="white"/>
</svg>
