<svg width="24" height="24" viewBox="0 0 24 24" fill="none" xmlns="http://www.w3.org/2000/svg">
<g clip-path="url(#clip0_421_5440)">
<path d="M2.5714 10.2852H4.28569C4.51302 10.2852 4.73103 10.3755 4.89178 10.5362C5.05252 10.697 5.14283 10.915 5.14283 11.1423V15.428C5.14283 15.6553 5.05252 15.8734 4.89178 16.0341C4.73103 16.1949 4.51302 16.2852 4.28569 16.2852H2.5714C2.11675 16.2852 1.68071 16.1045 1.35922 15.7831C1.03773 15.4616 0.857117 15.0255 0.857117 14.5709V11.9994C0.857117 11.5448 1.03773 11.1088 1.35922 10.7873C1.68071 10.4658 2.11675 10.2852 2.5714 10.2852V10.2852Z" stroke="white" stroke-width="1.5" stroke-linecap="round" stroke-linejoin="round"/>
<path d="M21.4285 16.2852H19.7143C19.4869 16.2852 19.2689 16.1949 19.1082 16.0341C18.9474 15.8734 18.8571 15.6553 18.8571 15.428V11.1423C18.8571 10.915 18.9474 10.697 19.1082 10.5362C19.2689 10.3755 19.4869 10.2852 19.7143 10.2852H21.4285C21.8832 10.2852 22.3192 10.4658 22.6407 10.7873C22.9622 11.1088 23.1428 11.5448 23.1428 11.9994V14.5709C23.1428 15.0255 22.9622 15.4616 22.6407 15.7831C22.3192 16.1045 21.8832 16.2852 21.4285 16.2852V16.2852Z" stroke="white" stroke-width="1.5" stroke-linecap="round" stroke-linejoin="round"/>
<path d="M16.2857 20.9994C17.195 20.9994 18.0671 20.6382 18.7101 19.9952C19.3531 19.3523 19.7143 18.4802 19.7143 17.5709V16.2852" stroke="white" stroke-width="1.5" stroke-linecap="round" stroke-linejoin="round"/>
<path d="M14.1428 18.8574C14.7111 18.8574 15.2562 19.0832 15.658 19.4851C16.0599 19.8869 16.2857 20.432 16.2857 21.0003C16.2857 21.5686 16.0599 22.1136 15.658 22.5155C15.2562 22.9174 14.7111 23.1431 14.1428 23.1431H11.5714C11.0031 23.1431 10.458 22.9174 10.0562 22.5155C9.65429 22.1136 9.42853 21.5686 9.42853 21.0003C9.42853 20.432 9.65429 19.8869 10.0562 19.4851C10.458 19.0832 11.0031 18.8574 11.5714 18.8574H14.1428Z" stroke="white" stroke-width="1.5" stroke-linecap="round" stroke-linejoin="round"/>
<path d="M4.28571 10.286V8.57171C4.28571 6.52575 5.09846 4.56359 6.54517 3.11688C7.99188 1.67017 9.95404 0.857422 12 0.857422C14.0459 0.857422 16.0081 1.67017 17.4548 3.11688C18.9015 4.56359 19.7143 6.52575 19.7143 8.57171V10.286" stroke="white" stroke-width="1.5" stroke-linecap="round" stroke-linejoin="round"/>
<path d="M9.42853 6.85742V9.42885" stroke="white" stroke-width="1.5" stroke-linecap="round" stroke-linejoin="round"/>
<path d="M14.5714 6.85742V9.42885" stroke="white" stroke-width="1.5" stroke-linecap="round" stroke-linejoin="round"/>
<path d="M9.42853 12.8574C9.42853 15.1374 14.5714 15.1374 14.5714 12.8574" stroke="white" stroke-width="1.5" stroke-linecap="round" stroke-linejoin="round"/>
</g>
<defs>
<clipPath id="clip0_421_5440">
<rect width="24" height="24" fill="white"/>
</clipPath>
</defs>
</svg>
