<svg width="24" height="24" viewBox="0 0 24 24" fill="none" xmlns="http://www.w3.org/2000/svg">
<g clip-path="url(#clip0_332_3729)">
<path d="M11.9998 23.1429C18.1538 23.1429 23.1426 18.1541 23.1426 12C23.1426 5.846 18.1538 0.857178 11.9998 0.857178C5.84576 0.857178 0.856934 5.846 0.856934 12C0.856934 18.1541 5.84576 23.1429 11.9998 23.1429Z" stroke="white" stroke-width="1.5" stroke-linecap="round" stroke-linejoin="round"/>
<path d="M0.856934 12H23.1426" stroke="white" stroke-width="1.5" stroke-linecap="round" stroke-linejoin="round"/>
<path d="M16.2853 12C16.0748 16.0749 14.5739 19.9772 11.9996 23.1429C9.42527 19.9772 7.92438 16.0749 7.71387 12C7.92438 7.92519 9.42527 4.02287 11.9996 0.857178C14.5739 4.02287 16.0748 7.92519 16.2853 12V12Z" stroke="white" stroke-width="1.5" stroke-linecap="round" stroke-linejoin="round"/>
</g>
<defs>
<clipPath id="clip0_332_3729">
<rect width="24" height="24" fill="white"/>
</clipPath>
</defs>
</svg>
