<svg width="24" height="24" viewBox="0 0 24 24" fill="none" xmlns="http://www.w3.org/2000/svg">
<g clip-path="url(#clip0_253_22692)">
<path d="M12 9.42861C18.154 9.42861 23.1429 7.50983 23.1429 5.14289C23.1429 2.77596 18.154 0.857178 12 0.857178C5.84597 0.857178 0.857147 2.77596 0.857147 5.14289C0.857147 7.50983 5.84597 9.42861 12 9.42861Z" stroke="#9C9C55" stroke-width="1.5" stroke-linecap="round" stroke-linejoin="round"/>
<path d="M0.857147 5.14294V18.8572C0.857147 21.2229 5.84572 23.1429 12 23.1429C18.1543 23.1429 23.1429 21.2229 23.1429 18.8572V5.14294" stroke="#9C9C55" stroke-width="1.5" stroke-linecap="round" stroke-linejoin="round"/>
<path d="M23.1429 12C23.1429 14.3657 18.1543 16.2857 12 16.2857C5.84572 16.2857 0.857147 14.3657 0.857147 12" stroke="#9C9C55" stroke-width="1.5" stroke-linecap="round" stroke-linejoin="round"/>
</g>
<defs>
<clipPath id="clip0_253_22692">
<rect width="24" height="24" fill="white"/>
</clipPath>
</defs>
</svg>
