<svg width="24" height="24" viewBox="0 0 24 24" fill="none" xmlns="http://www.w3.org/2000/svg">
<g clip-path="url(#clip0_613_1021)">
<path d="M15.0462 0.15989C15.092 0.165164 15.1377 0.170438 15.1848 0.175872C15.5406 0.226528 15.8501 0.324119 16.0921 0.594492C16.2127 0.830615 16.1818 1.08636 16.177 1.3442C16.1758 1.93098 16.4442 2.46048 16.687 2.98452C17.1775 4.04694 17.2449 5.18128 16.8462 6.28629C16.6562 6.78326 16.4224 7.28822 16.0581 7.68521C15.9359 7.85984 15.9144 8.02221 15.8893 8.22758C15.7956 8.85871 15.6336 9.63684 15.1714 10.1107C14.889 10.4183 14.8976 10.7397 14.91 11.1355C14.9133 11.2436 14.9137 11.3514 14.9138 11.4595C14.9192 11.8137 14.9259 12.0494 15.1614 12.3365C15.3018 12.4045 15.4115 12.3936 15.5682 12.3938C15.6636 12.3942 15.6635 12.3942 15.7608 12.3946C15.7949 12.3946 15.829 12.3947 15.8641 12.3947C15.9713 12.3948 16.0784 12.3953 16.1856 12.3958C16.4904 12.3973 16.7952 12.3983 17.1 12.3989C17.2865 12.3992 17.473 12.4001 17.6595 12.4012C17.764 12.4017 17.8686 12.4016 17.9731 12.4016C19.0438 12.4083 19.8653 12.6627 20.6621 13.384C21.3707 14.1022 21.5827 14.9298 21.5922 15.8995C21.5935 16.0089 21.5959 16.1184 21.5983 16.2278C21.5991 16.2979 21.5999 16.3681 21.6006 16.4382C21.6015 16.5014 21.6025 16.5646 21.6034 16.6297C21.5845 16.8152 21.5449 16.9091 21.432 17.057C21.2769 17.1604 21.228 17.1792 21.0496 17.1876C20.9911 17.192 20.9911 17.192 20.9315 17.1964C20.7804 17.156 20.6947 17.0889 20.5992 16.9672C20.4836 16.7259 20.5098 16.4478 20.5097 16.1861C20.5039 15.359 20.3744 14.6823 19.7882 14.0671C19.1825 13.5579 18.4984 13.5108 17.7376 13.4936C17.6247 13.4902 17.5118 13.4851 17.3991 13.4781C16.7674 13.4236 16.7674 13.4236 16.1994 13.6445C15.9939 13.8632 15.8462 14.1114 15.7051 14.3738C15.6303 14.5099 15.5419 14.6315 15.4467 14.7545C15.42 14.7907 15.3933 14.8268 15.3658 14.8641C15.3102 14.9392 15.2545 15.0143 15.1988 15.0894C15.0395 15.3043 14.882 15.5201 14.7269 15.738C14.6947 15.7829 14.6624 15.8278 14.6292 15.874C14.5674 15.9602 14.506 16.0466 14.4452 16.1334C14.185 16.4939 14.185 16.4939 13.9436 16.5449C13.5759 16.5542 13.4144 16.3731 13.1611 16.1405C12.9315 15.924 12.7062 15.7032 12.4807 15.4825C12.4196 15.4228 12.3585 15.3632 12.2974 15.3036C12.149 15.1588 12.0008 15.0139 11.8527 14.8689C11.7055 14.936 11.6003 15.0055 11.4879 15.1202C11.444 15.1646 11.444 15.1646 11.3991 15.2099C11.3681 15.2418 11.3371 15.2736 11.3051 15.3065C11.2727 15.3393 11.2403 15.3721 11.2068 15.4059C11.1033 15.5105 11.0002 15.6155 10.8971 15.7206C10.7614 15.8589 10.6254 15.9969 10.4891 16.1348C10.4581 16.1666 10.427 16.1985 10.3951 16.2313C10.3512 16.2757 10.3512 16.2757 10.3063 16.321C10.2808 16.347 10.2553 16.373 10.2291 16.3998C10.0694 16.5361 9.95935 16.5713 9.7467 16.5832C9.35511 16.5219 9.14458 16.12 8.92738 15.8277C8.86116 15.7376 8.79561 15.647 8.73015 15.5564C8.56289 15.3254 8.39033 15.0984 8.21753 14.8714C8.16021 14.7961 8.10289 14.7208 8.04558 14.6455C8.01416 14.6062 7.98273 14.5668 7.95036 14.5263C7.86816 14.4133 7.80351 14.3072 7.73735 14.1854C7.51589 13.803 7.51589 13.803 7.14603 13.5795C6.78934 13.5206 6.43315 13.5462 6.074 13.5672C5.96628 13.5701 5.85855 13.5726 5.75082 13.5747C4.98561 13.5966 4.33231 13.7023 3.75456 14.2376C3.37017 14.6529 3.16336 15.1908 3.16444 15.7498C3.16384 15.8166 3.16324 15.8833 3.16262 15.9522C3.16219 16.0568 3.16207 16.1614 3.1625 16.266C3.16273 16.3682 3.16163 16.4704 3.1605 16.5725C3.1605 16.6632 3.1605 16.6632 3.1605 16.7558C3.12985 16.9604 3.05779 17.0733 2.92925 17.2349C2.74911 17.3253 2.55531 17.3189 2.35788 17.2901C2.17141 17.1542 2.0847 17.053 2.04278 16.8313C1.96296 15.644 2.05878 14.5332 2.85106 13.5783C3.46426 12.9218 4.30409 12.556 5.20106 12.4969C5.39416 12.4909 5.5871 12.4877 5.78029 12.4856C5.85122 12.4844 5.92214 12.4832 5.99307 12.4819C6.25353 12.4772 6.51401 12.4736 6.77448 12.47C6.99603 12.4669 7.21756 12.4634 7.43909 12.4593C7.54238 12.4576 7.64568 12.4564 7.74898 12.4553C7.84296 12.4536 7.84296 12.4536 7.93883 12.4519C8.02142 12.4508 8.02142 12.4508 8.10567 12.4496C8.2518 12.4348 8.3358 12.4129 8.45624 12.3312C8.60268 12.0659 8.63463 11.8399 8.63645 11.5413C8.63693 11.5007 8.63741 11.46 8.6379 11.4182C8.63853 11.3323 8.63873 11.2465 8.63852 11.1607C8.63873 11.0323 8.64199 10.9043 8.64536 10.776C8.6506 10.227 8.54796 9.83098 8.27709 9.35107C8.06132 8.96719 7.97542 8.52881 7.92608 8.09646C7.8722 7.75953 7.70859 7.49649 7.54145 7.20329C6.90812 6.07833 6.09263 4.27208 6.41488 2.94646C6.52178 2.58171 6.7483 2.312 7.07333 2.11143C7.26828 2.03318 7.42975 2.02387 7.63952 2.01292C8.03299 1.9763 8.21497 1.84912 8.49012 1.56432C9.18347 0.859726 10.2833 0.490495 11.2299 0.275669C11.2868 0.26259 11.2868 0.262591 11.3449 0.249247C12.5188 -0.00490778 13.8571 0.0206777 15.0462 0.15989ZM11.4451 1.29858C11.3881 1.31175 11.3881 1.31175 11.33 1.32518C10.2687 1.58261 9.33776 2.12583 8.59327 2.91713C8.44737 3.0528 8.32858 3.05165 8.13096 3.06275C8.05926 3.05371 7.98771 3.04351 7.91634 3.03221C7.72073 2.99936 7.72073 2.99936 7.57471 3.07196C7.44393 3.16009 7.44393 3.16009 7.42245 3.30589C7.43508 3.96596 7.61081 4.59603 7.83429 5.216C7.96068 5.08971 7.97574 4.99762 8.02321 4.82736C8.18209 4.33698 8.43462 4.04379 8.88323 3.78447C9.17788 3.65025 9.45466 3.60353 9.77748 3.59367C9.81578 3.59241 9.85408 3.59114 9.89354 3.58984C10.0208 3.58583 10.1481 3.58259 10.2754 3.57946C10.3196 3.57827 10.3638 3.57708 10.4093 3.57585C10.705 3.56791 11.0007 3.56136 11.2964 3.55545C11.4683 3.55198 11.6403 3.54821 11.8122 3.54445C12.1151 3.53803 12.418 3.53302 12.7209 3.5289C12.8393 3.52716 12.9576 3.52508 13.076 3.52265C14.6719 3.49115 14.6719 3.49115 15.3107 4.03795C15.6964 4.43251 15.835 4.83964 15.9438 5.36532C15.961 5.3652 15.9781 5.36508 15.9958 5.36496C16.1727 4.55413 15.9291 3.85766 15.5822 3.1333C15.3156 2.57428 15.172 2.04566 15.105 1.43437C15.1012 1.28066 15.1012 1.28066 15.031 1.2228C13.9009 1.0094 12.5644 1.03975 11.4451 1.29858ZM12.6734 4.51779C12.5853 4.51925 12.4973 4.52071 12.4092 4.52216C12.2258 4.52527 12.0425 4.52864 11.8591 4.53215C11.6246 4.53659 11.3901 4.54006 11.1556 4.5433C10.9742 4.54597 10.7928 4.54932 10.6114 4.55285C10.525 4.55442 10.4385 4.55575 10.352 4.55682C10.2312 4.55838 10.1105 4.5609 9.98982 4.56364C9.92131 4.56483 9.85279 4.56602 9.7822 4.56725C9.45053 4.60674 9.23971 4.7536 9.03844 5.00587C8.86716 5.28432 8.93356 5.59634 8.96904 5.90269C9.01306 6.42504 9.00902 6.95657 8.95802 7.47796C8.88818 8.40803 9.30679 9.31064 9.91163 10.0024C10.4364 10.5443 11.0522 10.8702 11.8124 10.8972C12.5693 10.9066 13.17 10.6995 13.7429 10.195C14.5125 9.45156 14.9129 8.48614 14.9297 7.42769C14.9298 7.14902 14.923 6.87069 14.9139 6.59217C14.9084 6.41793 14.905 6.24372 14.9016 6.06942C14.8986 5.95763 14.8954 5.84584 14.8921 5.73406C14.8911 5.68247 14.8902 5.63088 14.8893 5.57772C14.8756 5.22257 14.8134 4.98119 14.5505 4.72221C14.0181 4.39366 13.2801 4.50686 12.6734 4.51779ZM9.69569 11.1959C9.62518 11.7153 9.62518 11.7153 9.78981 12.1898C9.91131 12.2751 10.0347 12.3465 10.1671 12.4139C10.3546 12.5143 10.5324 12.6299 10.7123 12.7428C10.9077 12.8652 11.1044 12.9852 11.3015 13.1047C11.4051 13.1693 11.5041 13.2371 11.6035 13.3077C11.7272 13.3963 11.7272 13.3963 11.8383 13.3703C11.9523 13.3294 12.0393 13.2798 12.1395 13.2125C12.1766 13.1878 12.2137 13.1632 12.2519 13.1377C12.2914 13.111 12.331 13.0842 12.3717 13.0567C12.4126 13.0293 12.4535 13.002 12.4957 12.9738C12.6262 12.8863 12.7565 12.7985 12.8868 12.7106C12.9751 12.6515 13.0634 12.5923 13.1518 12.5332C13.3129 12.4252 13.4739 12.3172 13.6347 12.2087C13.667 12.1869 13.6994 12.1651 13.7327 12.1427C13.8074 12.0935 13.8074 12.0935 13.8598 12.0381C13.8629 11.9347 13.8627 11.8311 13.8609 11.7276C13.86 11.671 13.8592 11.6144 13.8583 11.5561C13.8574 11.5124 13.8564 11.4686 13.8555 11.4235C13.6415 11.4931 13.4347 11.5725 13.2269 11.6583C12.3716 11.9897 11.3903 11.9997 10.5402 11.6351C10.4493 11.5912 10.3591 11.5459 10.2696 11.4993C10.2159 11.4717 10.1623 11.444 10.107 11.4156C9.96917 11.3435 9.83215 11.2704 9.69569 11.1959ZM8.90065 13.2753C8.77591 13.3531 8.65417 13.4069 8.51617 13.4577C8.73562 13.7939 8.9789 14.1104 9.22562 14.4274C9.43309 14.6944 9.63379 14.9649 9.82819 15.2413C10.0996 15.0149 10.3516 14.7764 10.5996 14.5254C10.6348 14.4899 10.6701 14.4544 10.7065 14.4178C10.7925 14.3313 10.8783 14.2447 10.9641 14.158C10.7734 14.0056 10.5759 13.8678 10.3706 13.7355C10.3398 13.7155 10.309 13.6955 10.2773 13.675C10.2128 13.6332 10.1482 13.5914 10.0835 13.5498C9.98419 13.4857 9.88502 13.4213 9.78586 13.3569C9.72298 13.3163 9.66009 13.2756 9.59719 13.235C9.54006 13.198 9.48293 13.1611 9.42407 13.1231C9.19428 12.9821 9.10595 13.1327 8.90065 13.2753ZM14.2825 13.0084C14.2138 13.0545 14.2138 13.0545 14.1437 13.1016C13.6414 13.438 13.1352 13.7679 12.6269 14.0953C12.8567 14.3628 13.0988 14.6111 13.3534 14.8555C13.3895 14.8902 13.4255 14.925 13.4626 14.9608C13.5504 15.0456 13.6383 15.1302 13.7263 15.2146C13.9548 15.002 14.1301 14.7665 14.3094 14.5128C14.3683 14.4302 14.4273 14.3476 14.4863 14.2651C14.5147 14.2251 14.5432 14.1851 14.5725 14.1438C14.6811 13.9916 14.7911 13.8403 14.9013 13.6892C14.9335 13.645 14.9657 13.6008 14.9988 13.5553C15.0208 13.5252 15.0427 13.495 15.0654 13.464C14.9133 13.3656 14.7619 13.2918 14.5977 13.2161C14.4835 13.1564 14.3846 13.0863 14.2825 13.0084Z" fill="white"/>
<path d="M20.7577 17.5226C21.0071 17.6331 21.1015 17.7878 21.2152 18.0224C21.2323 18.0561 21.2493 18.0897 21.2669 18.1244C21.3209 18.2314 21.374 18.3388 21.4269 18.4463C21.4809 18.5541 21.535 18.6617 21.5892 18.7694C21.6228 18.8363 21.6562 18.9032 21.6894 18.9703C21.7593 19.1241 21.7593 19.1241 21.8615 19.2565C21.9853 19.2765 22.1086 19.2938 22.233 19.3096C22.3099 19.3198 22.3868 19.3301 22.4637 19.3404C22.5851 19.3564 22.7066 19.3723 22.8281 19.3878C22.9452 19.4028 23.0622 19.4185 23.1792 19.4343C23.2153 19.4387 23.2513 19.4431 23.2885 19.4477C23.5045 19.4775 23.6631 19.5248 23.8394 19.6527C23.949 19.8123 23.9768 19.9128 23.9726 20.1046C23.9036 20.4074 23.5677 20.6481 23.346 20.8511C23.305 20.8891 23.264 20.9271 23.2217 20.9663C23.1372 21.0442 23.0516 21.1209 22.9651 21.1966C22.7349 21.4088 22.7349 21.4088 22.6396 21.6945C22.6529 21.8405 22.679 21.9764 22.7133 22.1189C22.7272 22.199 22.7409 22.279 22.7542 22.3591C22.7757 22.4727 22.7979 22.5861 22.8204 22.6994C22.9571 23.4249 22.9571 23.4249 22.7796 23.6839C22.6093 23.8193 22.5144 23.8463 22.2978 23.8422C22.0118 23.7843 21.7675 23.6109 21.5191 23.4654C20.9825 23.1305 20.9825 23.1305 20.3832 23.0845C20.2033 23.1641 20.0519 23.2759 19.9014 23.4003C19.7553 23.5152 19.5935 23.5958 19.427 23.678C19.3684 23.7072 19.3097 23.7364 19.2493 23.7665C19.0314 23.8572 18.8501 23.9016 18.6192 23.8372C18.4594 23.7455 18.4594 23.7455 18.3575 23.5829C18.3095 23.1877 18.3796 22.7982 18.4532 22.4106C18.4722 22.3082 18.491 22.2058 18.5095 22.1033C18.5179 22.0588 18.5263 22.0143 18.535 21.9685C18.541 21.9261 18.547 21.8838 18.5531 21.8401C18.5625 21.7775 18.5625 21.7775 18.572 21.7137C18.5412 21.5205 18.4175 21.4234 18.2782 21.2956C18.2505 21.2691 18.2227 21.2426 18.1941 21.2153C18.1055 21.1309 18.016 21.0475 17.9265 20.9641C17.8373 20.8799 17.7483 20.7956 17.6594 20.7112C17.604 20.6587 17.5485 20.6065 17.4927 20.5545C17.3106 20.3834 17.2477 20.3182 17.2249 20.0661C17.2273 19.9121 17.2421 19.8467 17.3134 19.7038C17.5724 19.4891 17.9205 19.4848 18.2471 19.4655C18.8773 19.4416 18.8773 19.4416 19.4244 19.1783C19.5968 18.947 19.6958 18.6892 19.7862 18.4182C19.8439 18.2497 19.9198 18.0965 20.0005 17.9375C20.022 17.8909 20.0435 17.8443 20.0657 17.7962C20.2273 17.5269 20.4517 17.4675 20.7577 17.5226ZM20.5617 19.2142C20.5428 19.2527 20.5428 19.2527 20.5235 19.2919C20.4654 19.4088 20.4063 19.5251 20.3471 19.6414C20.3272 19.6818 20.3074 19.7222 20.2869 19.7638C20.0895 20.1481 20.0895 20.1481 19.8413 20.2435C19.6813 20.2822 19.5208 20.3089 19.3579 20.3332C19.2928 20.3436 19.2928 20.3436 19.2264 20.3542C19.12 20.3712 19.0134 20.3874 18.9069 20.4035C19.0583 20.5827 19.2052 20.7541 19.3911 20.8996C19.5379 21.0163 19.6319 21.0934 19.6527 21.2834C19.6494 21.6389 19.6289 21.991 19.5963 22.3452C19.6362 22.3259 19.6362 22.3259 19.6769 22.3062C19.7986 22.248 19.9208 22.191 20.0431 22.134C20.0849 22.1138 20.1268 22.0935 20.1699 22.0726C20.4142 21.96 20.5737 21.8923 20.8411 21.9781C20.9808 22.0327 21.1163 22.0936 21.2517 22.1578C21.2876 22.1744 21.3235 22.191 21.3605 22.2081C21.4483 22.2488 21.5358 22.29 21.6233 22.3313C21.6173 22.281 21.6173 22.281 21.6112 22.2297C21.6003 22.1307 21.5906 22.0316 21.5819 21.9324C21.5724 21.8254 21.5607 21.7186 21.5463 21.6121C21.525 21.3718 21.522 21.2164 21.6572 21.0093C21.775 20.8778 21.8969 20.7577 22.0272 20.6383C22.1134 20.5526 22.1995 20.4667 22.2852 20.3804C22.2532 20.3758 22.2212 20.3711 22.1882 20.3663C22.0426 20.3445 21.8973 20.3211 21.7519 20.2976C21.7015 20.2903 21.6511 20.2831 21.5992 20.2756C21.2276 20.2138 21.2276 20.2138 21.0648 20.0718C20.9671 19.9014 20.8723 19.7311 20.7851 19.5552C20.7684 19.5222 20.7518 19.4893 20.7346 19.4554C20.694 19.375 20.6538 19.2944 20.6137 19.2138C20.5966 19.2139 20.5794 19.214 20.5617 19.2142Z" fill="white"/>
<path d="M11.976 17.5572C12.0259 17.5561 12.0259 17.5561 12.0767 17.5549C12.2385 17.5948 12.3238 17.6728 12.4454 17.7845C12.5196 17.9442 12.5196 17.9442 12.5817 18.1307C12.8236 18.8456 12.8236 18.8456 13.3337 19.3678C13.801 19.5395 14.3266 19.5389 14.8194 19.5327C15.0655 19.5684 15.1456 19.6401 15.3185 19.8136C15.3814 20.0091 15.3877 20.123 15.3286 20.3193C15.0928 20.6661 14.7663 20.9426 14.4458 21.2127C14.4114 21.2433 14.3769 21.274 14.3415 21.3056C14.3133 21.3228 14.2851 21.3399 14.2561 21.3576C14.1457 21.4374 14.0917 21.4926 14.0318 21.6151C14.0341 21.8829 14.0929 22.1381 14.151 22.3985C14.3368 23.275 14.3368 23.275 14.2541 23.6623C14.1121 23.8442 14.024 23.8653 13.7937 23.8953C13.4435 23.892 13.1627 23.7124 12.863 23.5502C12.7481 23.4897 12.6331 23.4292 12.5181 23.3689C12.4679 23.3419 12.4176 23.3149 12.3657 23.287C12.1198 23.144 12.1198 23.144 11.8508 23.1467C11.7954 23.1776 11.7954 23.1776 11.739 23.2092C11.6768 23.243 11.6768 23.243 11.6134 23.2775C11.5707 23.302 11.5281 23.3264 11.4842 23.3516C11.4423 23.3746 11.4005 23.3976 11.3573 23.4214C11.1879 23.5149 11.0195 23.61 10.8526 23.708C10.7921 23.7431 10.7921 23.7431 10.7302 23.7789C10.6944 23.8 10.6586 23.8212 10.6217 23.843C10.4316 23.9304 10.2494 23.935 10.0456 23.896C9.88918 23.8235 9.88918 23.8235 9.7843 23.6929C9.70608 23.3576 9.74899 23.0946 9.82224 22.7603C9.98452 22.1363 9.98452 22.1363 9.93487 21.5154C9.78754 21.2912 9.57929 21.1666 9.34971 21.0325C9.27093 20.9685 9.19332 20.9031 9.11767 20.8356C9.08532 20.8085 9.05296 20.7814 9.01963 20.7534C8.82452 20.584 8.69019 20.4426 8.61607 20.1892C8.61466 19.9883 8.64334 19.9119 8.76895 19.756C8.95211 19.5771 9.10343 19.5836 9.3551 19.5813C10.1391 19.5742 10.1391 19.5742 10.8231 19.2588C11.1336 18.8874 11.2941 18.405 11.438 17.9516C11.5429 17.7171 11.7054 17.5547 11.976 17.5572ZM11.9365 19.3245C11.9236 19.3505 11.9107 19.3764 11.8974 19.4031C11.8385 19.5207 11.7786 19.6378 11.7187 19.755C11.6984 19.7958 11.6781 19.8366 11.6572 19.8787C11.637 19.9177 11.6169 19.9568 11.5961 19.9971C11.5779 20.0332 11.5596 20.0693 11.5408 20.1064C11.4395 20.2479 11.3257 20.2882 11.1584 20.3288C11.1204 20.3349 11.0823 20.3411 11.0431 20.3474C11.0016 20.3543 10.9601 20.3612 10.9173 20.3683C10.8531 20.3785 10.8531 20.3785 10.7875 20.3888C10.7439 20.396 10.7003 20.4031 10.6553 20.4105C10.548 20.4281 10.4406 20.4453 10.3333 20.4623C10.497 20.6525 10.6561 20.8266 10.847 20.9902C11.0115 21.1507 11.0651 21.2672 11.0763 21.4942C11.0609 21.8 11.0174 22.102 10.9707 22.4043C11.168 22.3428 11.3388 22.2738 11.5148 22.1669C11.841 21.9842 11.841 21.9842 12.0593 21.9871C12.3782 22.079 12.6592 22.2287 12.9457 22.3908C12.98 22.3905 13.0143 22.3903 13.0497 22.3901C13.0412 22.34 13.0328 22.29 13.0241 22.2384C13.0133 22.1706 13.0026 22.1029 12.992 22.0351C12.9812 21.9692 12.9705 21.9034 12.9595 21.8355C12.8991 21.2931 12.8991 21.2931 13.0562 21.0627C13.1424 20.9693 13.2321 20.8846 13.3276 20.8004C13.4386 20.6974 13.5494 20.5941 13.66 20.4908C13.6599 20.4739 13.6598 20.457 13.6597 20.4396C13.5951 20.4307 13.5305 20.4218 13.4639 20.4127C13.3785 20.4003 13.2931 20.3879 13.2077 20.3754C13.1652 20.3697 13.1227 20.3639 13.0789 20.358C12.6424 20.2931 12.6424 20.2931 12.4621 20.1404C12.3731 20.007 12.3037 19.8671 12.235 19.7226C12.216 19.6844 12.1971 19.6461 12.1776 19.6067C12.1312 19.5127 12.0858 19.4183 12.0405 19.3238C12.0062 19.3241 11.9719 19.3243 11.9365 19.3245Z" fill="white"/>
<path d="M3.36805 17.6224C3.40703 17.6207 3.44602 17.619 3.48618 17.6172C3.65995 17.6495 3.73974 17.7256 3.86988 17.8431C3.96647 18.0012 3.96647 18.0012 4.05501 18.1849C4.07885 18.2336 4.07885 18.2336 4.10316 18.2832C4.15339 18.3861 4.20271 18.4894 4.25198 18.5927C4.30218 18.6965 4.35257 18.8002 4.40304 18.9038C4.44847 18.9974 4.49345 19.0911 4.53841 19.1849C4.59479 19.3161 4.59479 19.3161 4.66029 19.3742C4.78794 19.3936 4.91498 19.4103 5.04317 19.4254C5.12243 19.4354 5.20168 19.4454 5.28093 19.4555C5.40612 19.4712 5.53132 19.4866 5.65662 19.5014C5.77739 19.5157 5.89799 19.5311 6.0186 19.5467C6.05578 19.5508 6.09296 19.555 6.13127 19.5592C6.37285 19.5915 6.51548 19.6539 6.69055 19.8212C6.77769 19.99 6.78388 20.151 6.74612 20.333C6.58594 20.575 6.36136 20.7699 6.14282 20.9598C5.70285 21.3161 5.70285 21.3161 5.42269 21.7862C5.40818 22.0364 5.48564 22.2576 5.56579 22.4923C5.5881 22.5996 5.60854 22.7072 5.62653 22.8153C5.63511 22.8637 5.64369 22.9121 5.65253 22.9619C5.74228 23.5638 5.74228 23.5638 5.57845 23.8336C5.3633 23.961 5.19389 23.9778 4.95215 23.9307C4.73241 23.8279 4.52664 23.7055 4.31771 23.5831C3.78115 23.2483 3.78115 23.2483 3.18183 23.2022C3.00195 23.2819 2.8506 23.3936 2.70001 23.5181C2.55396 23.633 2.39216 23.7136 2.22563 23.7958C2.1377 23.8395 2.1377 23.8395 2.04798 23.8841C1.83155 23.9744 1.6466 24.0278 1.41785 23.9551C1.27526 23.8448 1.22358 23.8046 1.15582 23.6496C1.12963 23.2763 1.18688 22.9276 1.25213 22.5605C1.27106 22.4523 1.2898 22.3442 1.30833 22.236C1.31671 22.1887 1.32509 22.1414 1.33372 22.0927C1.3397 22.0482 1.34569 22.0038 1.35186 21.958C1.35809 21.9159 1.36433 21.8739 1.37075 21.8306C1.33981 21.6381 1.21583 21.5409 1.07698 21.4135C1.04923 21.387 1.02148 21.3605 0.992888 21.3332C0.904257 21.2488 0.81479 21.1654 0.72523 21.0819C0.636037 20.9978 0.547025 20.9135 0.458117 20.8291C0.402769 20.7766 0.347223 20.7244 0.291461 20.6724C0.0765176 20.4705 0.0359498 20.3751 0.0171167 20.0806C0.0496109 19.9114 0.120555 19.8319 0.244571 19.7119C0.409868 19.6576 0.409868 19.6576 0.607812 19.6262C0.643586 19.6196 0.679361 19.613 0.71622 19.6061C0.925823 19.5689 1.12977 19.5487 1.34262 19.5415C1.81358 19.5271 1.81358 19.5271 2.2036 19.2997C2.36634 19.0636 2.47334 18.8051 2.5765 18.5395C2.64816 18.3609 2.73638 18.1957 2.82837 18.0263C2.85527 17.9743 2.88218 17.9223 2.9099 17.8687C3.02993 17.6753 3.14755 17.6277 3.36805 17.6224ZM3.36055 19.3319C3.34161 19.3704 3.34161 19.3704 3.32228 19.4097C3.26423 19.5266 3.20508 19.6429 3.1459 19.7592C3.12605 19.7996 3.10619 19.8399 3.08574 19.8815C2.88833 20.2659 2.88833 20.2659 2.64009 20.3613C2.48004 20.4 2.31954 20.4267 2.15668 20.4511C2.09158 20.4615 2.09158 20.4615 2.02516 20.4721C1.91873 20.489 1.81218 20.5053 1.70562 20.5214C1.82645 20.639 1.94728 20.7566 2.06929 20.873C2.11432 20.9161 2.11432 20.9161 2.16025 20.96C2.19067 20.989 2.2211 21.018 2.25244 21.0478C2.46915 21.2717 2.45156 21.4363 2.44889 21.7303C2.4403 21.9755 2.42052 22.219 2.39495 22.463C2.43488 22.4437 2.43488 22.4437 2.47561 22.424C2.59728 22.3658 2.7195 22.3088 2.84178 22.2518C2.88364 22.2316 2.92551 22.2113 2.96865 22.1904C3.21289 22.0778 3.37239 22.0101 3.63984 22.0959C3.77954 22.1504 3.91501 22.2114 4.05042 22.2755C4.08632 22.2921 4.12221 22.3087 4.15919 22.3259C4.24695 22.3666 4.33449 22.4077 4.42198 22.449C4.41594 22.3914 4.41594 22.3914 4.40979 22.3326C4.32077 21.4344 4.32077 21.4344 4.4131 21.1846C4.53953 21.0385 4.67978 20.9168 4.82943 20.7942C4.93077 20.7029 5.00412 20.6076 5.084 20.4981C5.05199 20.4935 5.01998 20.4888 4.987 20.484C4.84135 20.4623 4.69602 20.4388 4.55064 20.4154C4.50028 20.4081 4.44991 20.4008 4.39801 20.3933C4.02636 20.3315 4.02636 20.3315 3.86361 20.1896C3.76591 20.0191 3.67107 19.8489 3.58385 19.6729C3.56721 19.64 3.55056 19.6071 3.53341 19.5731C3.49283 19.4928 3.45264 19.4122 3.41253 19.3316C3.39538 19.3317 3.37823 19.3318 3.36055 19.3319Z" fill="white"/>
</g>
<defs>
<clipPath id="clip0_613_1021">
<rect width="24" height="24" fill="white"/>
</clipPath>
</defs>
</svg>
