<svg width="24" height="24" viewBox="0 0 24 24" fill="none" xmlns="http://www.w3.org/2000/svg">
<g clip-path="url(#clip0_318_4963)">
<path d="M12.8058 11.8286C12.5515 11.939 12.2773 11.996 12.0001 11.996C11.7229 11.996 11.4486 11.939 11.1944 11.8286L1.42294 7.30288C1.26427 7.22285 1.13092 7.10034 1.03776 6.94901C0.944593 6.79767 0.895264 6.62345 0.895264 6.44573C0.895264 6.26802 0.944593 6.0938 1.03776 5.94246C1.13092 5.79113 1.26427 5.66862 1.42294 5.58859L11.1944 1.02859C11.4486 0.91818 11.7229 0.861206 12.0001 0.861206C12.2773 0.861206 12.5515 0.91818 12.8058 1.02859L22.5772 5.55431C22.7359 5.63434 22.8692 5.75684 22.9624 5.90818C23.0556 6.05951 23.1049 6.23374 23.1049 6.41145C23.1049 6.58916 23.0556 6.76339 22.9624 6.91472C22.8692 7.06606 22.7359 7.18856 22.5772 7.26859L12.8058 11.8286Z" stroke="white" stroke-width="1.5" stroke-linecap="round" stroke-linejoin="round"/>
<path d="M23.1429 12.6L12.6857 17.4172C12.4624 17.5191 12.2198 17.5718 11.9743 17.5718C11.7288 17.5718 11.4862 17.5191 11.2629 17.4172L0.857178 12.6" stroke="white" stroke-width="1.5" stroke-linecap="round" stroke-linejoin="round"/>
<path d="M23.1429 18.1714L12.6857 22.9886C12.4624 23.0905 12.2198 23.1432 11.9743 23.1432C11.7288 23.1432 11.4862 23.0905 11.2629 22.9886L0.857178 18.1714" stroke="white" stroke-width="1.5" stroke-linecap="round" stroke-linejoin="round"/>
</g>
<defs>
<clipPath id="clip0_318_4963">
<rect width="24" height="24" fill="white"/>
</clipPath>
</defs>
</svg>
