<svg width="24" height="24" viewBox="0 0 24 24" fill="none" xmlns="http://www.w3.org/2000/svg">
<g clip-path="url(#clip0_253_20098)">
<path d="M8.30762 11.0766H5.07682C4.69218 11.0766 4.36517 10.942 4.09592 10.6727C3.82681 10.4035 3.69208 10.0766 3.69208 9.69181V9.23048C3.69208 8.21119 4.05272 7.34107 4.77396 6.61983C5.49515 5.89884 6.36542 5.53819 7.38461 5.53819H8.30762C8.55758 5.53819 8.77384 5.44681 8.95662 5.26419C9.13929 5.08146 9.23063 4.8652 9.23063 4.61518V2.76886C9.23063 2.5189 9.13924 2.30243 8.95662 2.11971C8.7739 1.93724 8.55763 1.8457 8.30762 1.8457H7.38461C6.38451 1.8457 5.43039 2.0406 4.52163 2.42984C3.61297 2.81933 2.82701 3.34583 2.16347 4.00938C1.49997 4.67262 0.973626 5.45863 0.584185 6.36739C0.194745 7.27605 0 8.23043 0 9.23043V19.384C0 20.1537 0.269107 20.8072 0.807574 21.3458C1.34609 21.8842 2.00009 22.1534 2.76927 22.1534H8.30797C9.0771 22.1534 9.7309 21.8842 10.2695 21.3458C10.8078 20.8072 11.0771 20.1537 11.0771 19.384V13.8458C11.0771 13.0763 10.8078 12.4228 10.2691 11.8841C9.7308 11.3458 9.07675 11.0766 8.30762 11.0766Z" fill="white"/>
<path d="M23.1932 11.8841C22.6549 11.3458 22.001 11.0766 21.2317 11.0766H18.0009C17.6165 11.0766 17.2892 10.942 17.0204 10.6727C16.751 10.4035 16.6166 10.0766 16.6166 9.69181V9.23048C16.6166 8.21119 16.9772 7.34107 17.6981 6.61983C18.419 5.89884 19.2892 5.53819 20.3089 5.53819H21.2317C21.4818 5.53819 21.6982 5.44681 21.8808 5.26419C22.0633 5.08146 22.155 4.8652 22.155 4.61518V2.76886C22.155 2.5189 22.0634 2.30243 21.8808 2.11971C21.6982 1.93724 21.4818 1.8457 21.2317 1.8457H20.3089C19.3083 1.8457 18.3544 2.0406 17.4454 2.42984C16.5368 2.81933 15.7511 3.34583 15.0876 4.00938C14.424 4.67262 13.8975 5.45863 13.5082 6.36739C13.1188 7.27605 12.9238 8.23043 12.9238 9.23043V19.384C12.9238 20.1537 13.1932 20.8072 13.7315 21.3458C14.2699 21.8842 14.9237 22.1534 15.693 22.1534H21.2314C22.0007 22.1534 22.6545 21.8842 23.1928 21.3458C23.7316 20.8072 24.0004 20.1537 24.0004 19.384V13.8458C24.0004 13.0763 23.7316 12.4228 23.1932 11.8841Z" fill="white"/>
</g>
<defs>
<clipPath id="clip0_253_20098">
<rect width="24" height="24" fill="white"/>
</clipPath>
</defs>
</svg>
