<svg width="24" height="24" viewBox="0 0 24 24" fill="none" xmlns="http://www.w3.org/2000/svg">
<g clip-path="url(#clip0_253_18673)">
<path d="M14.5718 8.57142C15.5185 8.57142 16.286 7.80391 16.286 6.85714C16.286 5.91036 15.5185 5.14285 14.5718 5.14285C13.625 5.14285 12.8575 5.91036 12.8575 6.85714C12.8575 7.80391 13.625 8.57142 14.5718 8.57142Z" stroke="white" stroke-width="1.5" stroke-linecap="round" stroke-linejoin="round"/>
<path d="M7.71461 17.1429C8.188 17.1429 8.57175 16.7591 8.57175 16.2857C8.57175 15.8123 8.188 15.4286 7.71461 15.4286C7.24122 15.4286 6.85747 15.8123 6.85747 16.2857C6.85747 16.7591 7.24122 17.1429 7.71461 17.1429Z" stroke="white" stroke-width="1.5" stroke-linecap="round" stroke-linejoin="round"/>
<path d="M7.71429 11.1429C8.66106 11.1429 9.42857 10.3754 9.42857 9.42858C9.42857 8.48181 8.66106 7.71429 7.71429 7.71429C6.76751 7.71429 6 8.48181 6 9.42858C6 10.3754 6.76751 11.1429 7.71429 11.1429Z" stroke="white" stroke-width="1.5" stroke-linecap="round" stroke-linejoin="round"/>
<path d="M16.32 21.0514C16.3009 20.7189 16.1853 20.3992 15.9875 20.1313C15.7896 19.8633 15.5179 19.6589 15.2057 19.5429C14.4304 19.288 13.7713 18.7649 13.3471 18.0677C12.9229 17.3704 12.7614 16.5447 12.8916 15.739C13.0217 14.9332 13.435 14.2004 14.0572 13.6721C14.6794 13.1439 15.4696 12.8549 16.2857 12.8572H19.4914C20.0413 12.8587 20.5834 12.728 21.0721 12.476C21.5608 12.2241 21.9817 11.8583 22.2994 11.4095C22.6171 10.9607 22.8221 10.4421 22.8973 9.89748C22.9725 9.35282 22.9156 8.79806 22.7314 8.28001C22.0496 6.35481 20.8517 4.65404 19.2688 3.36352C17.6858 2.07299 15.7786 1.24235 13.7555 0.96236C11.7324 0.682366 9.67125 0.963784 7.79727 1.77587C5.92329 2.58795 4.30854 3.89946 3.12946 5.56711C1.95037 7.23476 1.2523 9.19439 1.11152 11.2319C0.97073 13.2694 1.39264 15.3064 2.33116 17.1204C3.26967 18.9344 4.68869 20.4555 6.43317 21.5176C8.17765 22.5797 10.1805 23.1419 12.2229 23.1429C13.2315 23.1457 14.2355 23.0072 15.2057 22.7314C15.5621 22.6316 15.8706 22.407 16.0752 22.0986C16.2797 21.7902 16.3666 21.4186 16.32 21.0514V21.0514Z" stroke="white" stroke-width="1.5" stroke-linecap="round" stroke-linejoin="round"/>
</g>
<defs>
<clipPath id="clip0_253_18673">
<rect width="24" height="24" fill="white"/>
</clipPath>
</defs>
</svg>
