<svg width="60" height="60" viewBox="0 0 60 60" fill="none" xmlns="http://www.w3.org/2000/svg">
<path d="M22.5 7.5H5.625C2.52319 7.5 0 10.0232 0 13.125V30C0 33.1018 2.52319 35.625 5.625 35.625H13.1937L10.3473 50.267C10.2402 50.8173 10.3848 51.3858 10.741 51.8179C11.0971 52.2501 11.6272 52.5 12.1875 52.5H18.262C19.8926 52.5 21.3419 51.4334 21.8353 49.8889L27.2937 36.9415C27.3248 36.8674 27.3514 36.7914 27.3724 36.7145C27.8723 34.9182 28.125 33.0606 28.125 31.1939V13.125C28.125 10.0232 25.6018 7.5 22.5 7.5Z" fill="white" fill-opacity="0.1"/>
<path d="M54.375 7.5H37.5C34.3982 7.5 31.875 10.0232 31.875 13.125V30C31.875 33.1018 34.3982 35.625 37.5 35.625H45.0696L42.2223 50.267C42.1143 50.8173 42.2589 51.3858 42.616 51.8179C42.9712 52.2501 43.5022 52.5 44.0625 52.5H50.1379C51.7694 52.5 53.2178 51.4334 53.7103 49.888L59.1687 36.9415C59.1998 36.8674 59.2254 36.7914 59.2474 36.7145C59.7473 34.9164 60 33.0588 60 31.1939V13.125C60 10.0232 57.4768 7.5 54.375 7.5Z" fill="white" fill-opacity="0.1"/>
</svg>
