<svg width="24" height="24" viewBox="0 0 24 24" fill="none" xmlns="http://www.w3.org/2000/svg">
<path d="M17.1436 2.57143H6.85784C5.91107 2.57143 5.14355 3.33894 5.14355 4.28571V12.8571C5.14355 13.8039 5.91107 14.5714 6.85784 14.5714H17.1436C18.0903 14.5714 18.8578 13.8039 18.8578 12.8571V4.28571C18.8578 3.33894 18.0903 2.57143 17.1436 2.57143Z" stroke="white" stroke-width="1.5" stroke-linecap="round" stroke-linejoin="round"/>
<path d="M5.14314 7.71428H2.57171C2.11705 7.71428 1.68102 7.89489 1.35952 8.21638C1.03803 8.53787 0.857422 8.97391 0.857422 9.42856V17.1429C0.857422 17.5975 1.03803 18.0335 1.35952 18.355C1.68102 18.6765 2.11705 18.8571 2.57171 18.8571H21.4289C21.8835 18.8571 22.3195 18.6765 22.641 18.355C22.9625 18.0335 23.1431 17.5975 23.1431 17.1429V9.42856C23.1431 8.97391 22.9625 8.53787 22.641 8.21638C22.3195 7.89489 21.8835 7.71428 21.4289 7.71428H18.8574" stroke="white" stroke-width="1.5" stroke-linecap="round" stroke-linejoin="round"/>
<path d="M6.85714 18.8571L6 23.1429" stroke="white" stroke-width="1.5" stroke-linecap="round" stroke-linejoin="round"/>
<path d="M17.1436 18.8571L18.0007 23.1429" stroke="white" stroke-width="1.5" stroke-linecap="round" stroke-linejoin="round"/>
</svg>
