<svg width="24" height="24" viewBox="0 0 24 24" fill="none" xmlns="http://www.w3.org/2000/svg">
<g clip-path="url(#clip0_344_60995)">
<path d="M12 17.1771V18.9086" stroke="white" stroke-width="1.5" stroke-linecap="round" stroke-linejoin="round"/>
<path d="M12 8.58856V10.2" stroke="white" stroke-width="1.5" stroke-linecap="round" stroke-linejoin="round"/>
<path d="M11.9996 23.1257C17.9996 23.1257 22.2853 21 22.2853 16.2686C22.2853 11.1257 19.7139 7.69715 14.571 5.12573L16.5939 2.52001C16.6966 2.34905 16.7524 2.15395 16.7554 1.9545C16.7585 1.75505 16.7088 1.55833 16.6113 1.38429C16.5139 1.21025 16.3721 1.06507 16.2005 0.963462C16.0288 0.861857 15.8333 0.807439 15.6339 0.805725H8.3653C8.16583 0.807439 7.97036 0.861857 7.7987 0.963462C7.62705 1.06507 7.4853 1.21025 7.38784 1.38429C7.29038 1.55833 7.24066 1.75505 7.24372 1.9545C7.24679 2.15395 7.30253 2.34905 7.4053 2.52001L9.42815 5.14287C4.2853 7.73144 1.71387 11.16 1.71387 16.3029C1.71387 21 5.99958 23.1257 11.9996 23.1257Z" stroke="white" stroke-width="1.5" stroke-linecap="round" stroke-linejoin="round"/>
<path d="M10.2857 16.3886C10.4948 16.6368 10.7581 16.8339 11.0553 16.9647C11.3524 17.0954 11.6756 17.1564 12 17.1428C12.4957 17.1766 12.9853 17.0169 13.3658 16.6972C13.7462 16.3775 13.9879 15.9228 14.04 15.4286C13.9879 14.9344 13.7462 14.4796 13.3658 14.1599C12.9853 13.8402 12.4957 13.6805 12 13.7143C11.5042 13.7481 11.0146 13.5883 10.6342 13.2686C10.2537 12.9489 10.0121 12.4942 9.95996 12C10.0079 11.5041 10.2484 11.0467 10.6298 10.7262C11.0113 10.4056 11.5032 10.2475 12 10.2857C12.3186 10.2662 12.6376 10.3176 12.9341 10.4362C13.2305 10.5547 13.4969 10.7375 13.7142 10.9714" stroke="white" stroke-width="1.5" stroke-linecap="round" stroke-linejoin="round"/>
</g>
<defs>
<clipPath id="clip0_344_60995">
<rect width="24" height="24" fill="white"/>
</clipPath>
</defs>
</svg>
