<svg width="24" height="24" viewBox="0 0 24 24" fill="none" xmlns="http://www.w3.org/2000/svg">
<g clip-path="url(#clip0_446_12085)">
<path d="M0.856934 2.5731L0.856934 21.4302C0.856934 22.377 1.62445 23.1445 2.57122 23.1445L21.4284 23.1445C22.3751 23.1445 23.1426 22.377 23.1426 21.4302V2.5731C23.1426 1.62633 22.3751 0.858816 21.4284 0.858816L2.57122 0.858816C1.62445 0.858816 0.856934 1.62633 0.856934 2.5731Z" stroke="white" stroke-width="1.5" stroke-linecap="round" stroke-linejoin="round"/>
<path d="M7.71387 18.8585V10.2871" stroke="white" stroke-width="1.5" stroke-linecap="round" stroke-linejoin="round"/>
<path d="M7.71401 10.2874C9.13417 10.2874 10.2854 9.13612 10.2854 7.71596C10.2854 6.2958 9.13417 5.14453 7.71401 5.14453C6.29385 5.14453 5.14258 6.2958 5.14258 7.71596C5.14258 9.13612 6.29385 10.2874 7.71401 10.2874Z" stroke="white" stroke-width="1.5" stroke-linecap="round" stroke-linejoin="round"/>
<path d="M16.2856 5.14453V10.2874" stroke="white" stroke-width="1.5" stroke-linecap="round" stroke-linejoin="round"/>
<path d="M16.2856 15.4297V18.8583" stroke="white" stroke-width="1.5" stroke-linecap="round" stroke-linejoin="round"/>
<path d="M16.2853 15.43C17.7055 15.43 18.8567 14.2787 18.8567 12.8585C18.8567 11.4384 17.7055 10.2871 16.2853 10.2871C14.8651 10.2871 13.7139 11.4384 13.7139 12.8585C13.7139 14.2787 14.8651 15.43 16.2853 15.43Z" stroke="white" stroke-width="1.5" stroke-linecap="round" stroke-linejoin="round"/>
</g>
<defs>
<clipPath id="clip0_446_12085">
<rect width="24" height="24" fill="white"/>
</clipPath>
</defs>
</svg>
