<svg width="24" height="24" viewBox="0 0 24 24" fill="none" xmlns="http://www.w3.org/2000/svg">
<g clip-path="url(#clip0_318_5002)">
<path d="M5.57146 10.2857C8.17509 10.2857 10.2857 8.17503 10.2857 5.5714C10.2857 2.96777 8.17509 0.857117 5.57146 0.857117C2.96784 0.857117 0.857178 2.96777 0.857178 5.5714C0.857178 8.17503 2.96784 10.2857 5.57146 10.2857Z" stroke="white" stroke-width="1.5" stroke-linecap="round" stroke-linejoin="round"/>
<path d="M18.4286 10.2857C21.0323 10.2857 23.1429 8.17503 23.1429 5.5714C23.1429 2.96777 21.0323 0.857117 18.4286 0.857117C15.825 0.857117 13.7144 2.96777 13.7144 5.5714C13.7144 8.17503 15.825 10.2857 18.4286 10.2857Z" stroke="white" stroke-width="1.5" stroke-linecap="round" stroke-linejoin="round"/>
<path d="M5.57146 23.1428C8.17509 23.1428 10.2857 21.0321 10.2857 18.4285C10.2857 15.8249 8.17509 13.7142 5.57146 13.7142C2.96784 13.7142 0.857178 15.8249 0.857178 18.4285C0.857178 21.0321 2.96784 23.1428 5.57146 23.1428Z" stroke="white" stroke-width="1.5" stroke-linecap="round" stroke-linejoin="round"/>
<path d="M18.4286 23.1428C21.0323 23.1428 23.1429 21.0321 23.1429 18.4285C23.1429 15.8249 21.0323 13.7142 18.4286 13.7142C15.825 13.7142 13.7144 15.8249 13.7144 18.4285C13.7144 21.0321 15.825 23.1428 18.4286 23.1428Z" stroke="white" stroke-width="1.5" stroke-linecap="round" stroke-linejoin="round"/>
</g>
<defs>
<clipPath id="clip0_318_5002">
<rect width="24" height="24" fill="white"/>
</clipPath>
</defs>
</svg>
