<svg width="24" height="24" viewBox="0 0 24 24" fill="none" xmlns="http://www.w3.org/2000/svg">
<path d="M18.2404 2.64001H5.76037C5.47265 2.64792 5.19083 2.72341 4.93769 2.86041C4.68455 2.9974 4.46721 3.19204 4.30323 3.42859L1.18323 7.74859C0.95155 8.07597 0.83585 8.47135 0.854484 8.87198C0.873118 9.27262 1.02502 9.65555 1.28608 9.96001L10.6461 20.7429C10.8063 20.9493 11.0117 21.1164 11.2464 21.2314C11.4811 21.3464 11.739 21.4061 12.0004 21.4061C12.2617 21.4061 12.5196 21.3464 12.7544 21.2314C12.9891 21.1164 13.1944 20.9493 13.3547 20.7429L22.7147 9.96001C22.9757 9.65555 23.1276 9.27262 23.1463 8.87198C23.1649 8.47135 23.0492 8.07597 22.8175 7.74859L19.6975 3.42859C19.5335 3.19204 19.3162 2.9974 19.063 2.86041C18.8099 2.72341 18.5281 2.64792 18.2404 2.64001V2.64001Z" stroke="white" stroke-width="1.5" stroke-linecap="round" stroke-linejoin="round"/>
<path d="M11.1086 2.62286L6.92578 9.10286L12.0001 21.36" stroke="white" stroke-width="1.5" stroke-linecap="round" stroke-linejoin="round"/>
<path d="M12.9429 2.62286L17.1086 9.10286L12 21.36" stroke="white" stroke-width="1.5" stroke-linecap="round" stroke-linejoin="round"/>
<path d="M0.891602 9.10284H23.1087" stroke="white" stroke-width="1.5" stroke-linecap="round" stroke-linejoin="round"/>
</svg>
