<svg width="133" height="50" viewBox="0 0 133 50" fill="none" xmlns="http://www.w3.org/2000/svg">
<circle cx="25" cy="25" r="25" fill="#9C9C55"/>
<mask id="mask0_287_4944" style="mask-type:alpha" maskUnits="userSpaceOnUse" x="0" y="0" width="50" height="50">
<circle cx="25" cy="25" r="25" fill="#9C9C55"/>
</mask>
<g mask="url(#mask0_287_4944)">
<path d="M30.6468 10L11 22.7693V54H39V38.7107L38.262 38.2305L30.6474 33.2818V10H30.6468ZM27.411 15.9695V31.1787L19.3526 25.9419V50.7566H14.237V24.5316L27.411 15.9701V15.9695ZM22.5885 31.9103L27.4104 35.0446V50.7566H22.5885V31.9103ZM30.6468 37.1476L35.763 40.4729V50.756H30.6468V37.1476Z" fill="white"/>
</g>
<path d="M67.5156 34H64.1289L70.293 16.5391H74.1836L80.3359 34H76.9609L72.2969 20.125H72.1562L67.5156 34ZM67.6328 27.1562H76.832V29.6875H67.6328V27.1562ZM84.6953 26.3359V34H81.6133V20.8984H84.6367V23.1367H84.7891C85.0859 22.4023 85.5508 21.8203 86.1836 21.3906C86.8242 20.9531 87.6367 20.7344 88.6211 20.7344C89.5273 20.7344 90.3164 20.9258 90.9883 21.3086C91.6602 21.6914 92.1797 22.2539 92.5469 22.9961C92.9219 23.7305 93.1094 24.6211 93.1094 25.668V34H90.0273V26.1484C90.0273 25.2734 89.8008 24.5898 89.3477 24.0977C88.8945 23.5977 88.2695 23.3477 87.4727 23.3477C86.9336 23.3477 86.4531 23.4648 86.0312 23.6992C85.6172 23.9336 85.2891 24.2734 85.0469 24.7188C84.8125 25.1562 84.6953 25.6953 84.6953 26.3359ZM101.922 20.8984V23.2891H94.4102V20.8984H101.922ZM96.25 17.7812H99.332V30.0625C99.332 30.5781 99.4453 30.9609 99.6719 31.2109C99.8984 31.4531 100.258 31.5742 100.75 31.5742C100.883 31.5742 101.031 31.5625 101.195 31.5391C101.359 31.5156 101.508 31.4883 101.641 31.457L102.168 33.8711C101.84 33.9727 101.508 34.0469 101.172 34.0938C100.836 34.1484 100.5 34.1758 100.164 34.1758C98.9453 34.1758 97.9883 33.8555 97.293 33.2148C96.5977 32.5664 96.25 31.6836 96.25 30.5664V17.7812ZM103.621 34V20.8984H106.703V34H103.621ZM105.168 19.0586C104.676 19.0586 104.254 18.8945 103.902 18.5664C103.551 18.2383 103.375 17.8438 103.375 17.3828C103.375 16.9141 103.551 16.5156 103.902 16.1875C104.254 15.8594 104.676 15.6953 105.168 15.6953C105.652 15.6953 106.07 15.8594 106.422 16.1875C106.773 16.5156 106.949 16.9102 106.949 17.3711C106.949 17.8398 106.773 18.2383 106.422 18.5664C106.07 18.8945 105.652 19.0586 105.168 19.0586ZM112.07 16.5391V34H108.988V16.5391H112.07ZM118.129 34.2695C117.293 34.2695 116.543 34.1211 115.879 33.8242C115.215 33.5195 114.691 33.0742 114.309 32.4883C113.926 31.9023 113.734 31.1797 113.734 30.3203C113.734 29.5859 113.871 28.9766 114.145 28.4922C114.418 28.0078 114.789 27.6211 115.258 27.332C115.734 27.043 116.27 26.8242 116.863 26.6758C117.457 26.5195 118.07 26.4102 118.703 26.3477C119.477 26.2617 120.102 26.1875 120.578 26.125C121.055 26.0625 121.398 25.9609 121.609 25.8203C121.828 25.6797 121.938 25.4609 121.938 25.1641V25.1055C121.938 24.4727 121.75 23.9805 121.375 23.6289C121 23.2773 120.453 23.1016 119.734 23.1016C118.977 23.1016 118.375 23.2656 117.93 23.5938C117.492 23.9219 117.195 24.3086 117.039 24.7539L114.168 24.3438C114.395 23.5469 114.77 22.8828 115.293 22.3516C115.816 21.8125 116.453 21.4102 117.203 21.1445C117.961 20.8711 118.797 20.7344 119.711 20.7344C120.336 20.7344 120.961 20.8086 121.586 20.957C122.211 21.0977 122.785 21.3398 123.309 21.6836C123.832 22.0273 124.25 22.4883 124.562 23.0664C124.875 23.6445 125.031 24.3672 125.031 25.2344V34H122.066V32.1953H121.973C121.785 32.5547 121.52 32.8945 121.176 33.2148C120.84 33.5273 120.418 33.7812 119.91 33.9766C119.41 34.1719 118.816 34.2695 118.129 34.2695ZM118.914 31.9961C119.539 31.9961 120.078 31.875 120.531 31.6328C120.984 31.3828 121.336 31.0547 121.586 30.6484C121.836 30.2344 121.961 29.7852 121.961 29.3008V27.7656C121.859 27.8438 121.695 27.918 121.469 27.9883C121.242 28.0508 120.984 28.1094 120.695 28.1641C120.406 28.2188 120.121 28.2656 119.84 28.3047C119.566 28.3438 119.328 28.375 119.125 28.3984C118.664 28.4609 118.25 28.5664 117.883 28.7148C117.523 28.8555 117.238 29.0508 117.027 29.3008C116.816 29.5508 116.711 29.875 116.711 30.2734C116.711 30.8438 116.918 31.2734 117.332 31.5625C117.746 31.8516 118.273 31.9961 118.914 31.9961Z" fill="#1A1A1A"/>
<path d="M129.566 34.1992C129.035 34.1992 128.586 34.0195 128.219 33.6602C127.859 33.293 127.68 32.8477 127.68 32.3242C127.68 31.8008 127.859 31.3594 128.219 31C128.586 30.6328 129.035 30.4492 129.566 30.4492C130.098 30.4492 130.543 30.6328 130.902 31C131.27 31.3594 131.453 31.8008 131.453 32.3242C131.453 32.8477 131.27 33.293 130.902 33.6602C130.543 34.0195 130.098 34.1992 129.566 34.1992Z" fill="#9C9C55"/>
</svg>
