<svg id="fi_9713317" enable-background="new 0 0 512 512" height="512" viewBox="0 0 512 512" width="512" xmlns="http://www.w3.org/2000/svg"><circle cx="256" cy="256" fill="#3d4dac" r="256"></circle><g><g id="XMLID_1_"><path d="m394.7 231.1c1.8 1.6 1.4 3.5 1.2 4.1-.2.5-1.1 2.4-3.4 2.4h-17.8c-1.8 0-3.3 1.5-3.3 3.3v149.3c0 1.6-1.4 3.1-3.1 3.1h-70.6v-102.3c0-4.5-3.7-8.2-8.1-8.2h-67c-4.5 0-8.2 3.7-8.2 8.2v102.3h-70.5c-.8 0-1.6-.3-2.1-.9-.6-.6-1-1.4-1-2.2v-149.2c0-1.9-1.5-3.3-3.3-3.3h-17.9c-2.3 0-3.2-1.8-3.4-2.4s-.7-2.6 1.2-4.1l137.6-112.1c.3-.3.8-.4 1.2-.4s.9.1 1.2.5l57.8 47c1 .8 2.4 1 3.5.4 1.2-.5 1.9-1.8 1.9-3v-44.9h32.8v77.1c0 1 .4 2 1.2 2.6z" fill="#fffffe"></path></g></g></svg>